<svg width="650" height="496" viewBox="0 0 650 496" fill="none" xmlns="http://www.w3.org/2000/svg">
<g clip-path="url(#clip0_220_6802)">
<path d="M94.4004 93.2C100.476 93.2 105.4 88.2751 105.4 82.2C105.4 76.1249 100.476 71.2 94.4004 71.2C88.3253 71.2 83.4004 76.1249 83.4004 82.2C83.4004 88.2751 88.3253 93.2 94.4004 93.2Z" fill="#B2BAC1"/>
<path d="M217.3 9.59999C219.951 9.59999 222.1 7.45097 222.1 4.8C222.1 2.14904 219.951 0 217.3 0C214.649 0 212.5 2.14904 212.5 4.8C212.5 7.45097 214.649 9.59999 217.3 9.59999Z" fill="#B0E1FF"/>
<path d="M133.8 495.1C136.948 495.1 139.5 492.548 139.5 489.4C139.5 486.252 136.948 483.7 133.8 483.7C130.652 483.7 128.1 486.252 128.1 489.4C128.1 492.548 130.652 495.1 133.8 495.1Z" fill="white"/>
<path d="M100.301 464C100.301 465.6 99.0008 467 97.3008 467C95.7008 467 94.3008 465.7 94.3008 464C94.3008 462.4 95.6008 461 97.3008 461C99.0008 461 100.301 462.4 100.301 464Z" fill="#6EE8FC"/>
<path d="M602.001 354.9C602.001 356.6 600.601 358 598.901 358C597.201 358 595.801 356.6 595.801 354.9C595.801 353.2 597.201 351.8 598.901 351.8C600.701 351.8 602.001 353.2 602.001 354.9Z" fill="#6EE8FC"/>
<path d="M388.801 62.7C388.801 64.3 387.501 65.5 386.001 65.5C384.401 65.5 383.201 64.2 383.201 62.7C383.201 61.1 384.501 59.9 386.001 59.9C387.601 59.9 388.801 61.1 388.801 62.7Z" fill="#B0E1FF"/>
<path d="M533.2 471.3L522.9 461L533.2 450.7L543.5 461L533.2 471.3ZM528.3 461L533.2 465.9L538.1 461L533.2 456.1L528.3 461Z" fill="white"/>
<g opacity="0.8">
<path d="M317.2 367.2L242.6 324.1C237.3 321 238 315.7 244.1 312.1L315.8 270.7C321.9 267.2 331.2 266.8 336.5 269.8L411.1 312.9C416.4 316 415.7 321.3 409.6 324.9L337.9 366.3C331.8 369.9 322.5 370.3 317.2 367.2Z" fill="#0C0F38"/>
</g>
<path d="M320.201 322.2C316.601 322.2 313.401 321.4 311.001 320.1L236.201 277.2C233.601 275.7 232.301 273.6 232.301 271.3L232.201 245.8L269.601 245.7L309.101 222.7C312.401 220.8 316.801 219.7 321.201 219.7C324.801 219.7 328.001 220.5 330.401 221.8L371.601 245.4L409.001 245.3L409.101 271.3H409.001C408.601 273.7 406.801 275.9 403.801 277.6L332.301 319.2C329.001 321.1 324.601 322.2 320.201 322.2Z" fill="#393939"/>
<path d="M321.301 220.2C324.601 220.2 327.801 220.9 330.201 222.2L371.501 245.9L408.501 245.8L408.601 270.7C408.401 272.9 406.801 275.3 403.601 277.1L332.101 318.7C328.701 320.7 324.401 321.7 320.301 321.7C317.001 321.7 313.801 321 311.401 319.7L236.601 276.8C234.001 275.3 232.901 273.3 233.001 271.3L232.901 246.4L269.901 246.3L309.601 223.2C312.901 221.3 317.201 220.2 321.301 220.2ZM321.301 219.1C316.901 219.1 312.401 220.2 309.001 222.2L269.601 245.1L232.901 245.2H231.801V246.3L231.901 271.2V272.3C232.201 274.4 233.601 276.3 236.001 277.7L310.801 320.6C313.301 322 316.601 322.8 320.301 322.8C324.701 322.8 329.201 321.7 332.601 319.7L404.101 278.1C407.101 276.4 409.001 274.2 409.501 271.8H409.701V270.7L409.601 245.8V244.7H408.501L371.801 244.8L330.801 221.3C328.301 219.9 325.001 219.1 321.301 219.1Z" fill="black"/>
<path d="M235.3 272.9L235.2 248L272.2 247.9L311.9 224.8C318 221.2 327.3 220.8 332.6 223.9L373.9 247.6L408.6 247.5V245.8L371.6 245.9L330.3 222.2C325 219.2 315.7 219.6 309.6 223.1L269.9 246.2L232.9 246.3L233 271.2C232.9 273.3 234 275.3 236.6 276.7L237 276.9C235.8 275.8 235.2 274.4 235.3 272.9Z" fill="white"/>
<path d="M320.201 297.4C316.601 297.4 313.401 296.6 311.001 295.3L236.201 252.4C233.701 251 232.301 249 232.301 246.7C232.301 244.1 234.201 241.4 237.601 239.4L309.101 197.8C312.401 195.9 316.801 194.8 321.201 194.8C324.801 194.8 328.001 195.6 330.401 196.9L405.201 239.8C407.701 241.2 409.101 243.2 409.101 245.5C409.101 248.1 407.201 250.8 403.801 252.8L332.301 294.4C328.901 296.3 324.501 297.4 320.201 297.4Z" fill="black"/>
<path d="M321.201 195.4C324.501 195.4 327.701 196.1 330.101 197.4L404.901 240.3C410.201 243.3 409.601 248.7 403.401 252.3L331.901 293.9C328.501 295.9 324.201 296.9 320.101 296.9C316.801 296.9 313.601 296.2 311.201 294.9L236.401 252C231.101 249 231.701 243.6 237.901 240L309.401 198.4C312.801 196.4 317.101 195.4 321.201 195.4ZM321.201 194.3C316.801 194.3 312.301 195.4 308.901 197.4L237.401 239C233.801 241.1 231.801 243.9 231.801 246.7C231.801 249.1 233.301 251.3 236.001 252.8L310.801 295.7C313.301 297.1 316.601 297.9 320.301 297.9C324.701 297.9 329.201 296.8 332.601 294.8L404.101 253.2C407.701 251.1 409.701 248.3 409.701 245.5C409.701 243.1 408.201 240.9 405.501 239.4L330.701 196.5C328.301 195.1 324.901 194.3 321.201 194.3Z" fill="black"/>
<path d="M404.901 240.3L330.101 197.4C327.301 195.8 323.501 195.2 319.601 195.4C322.401 195.6 325.101 196.2 327.101 197.4L401.901 240.3C407.201 243.3 406.601 248.7 400.401 252.3L328.901 293.9C326.001 295.6 322.301 296.6 318.701 296.8C323.201 297.1 328.101 296.1 331.901 293.9L403.401 252.3C409.601 248.7 410.301 243.4 404.901 240.3Z" fill="#2AA7FF"/>
<path d="M320.401 284.5C317.801 284.5 315.301 284 313.401 282.9L257.701 251C255.801 249.9 254.701 248.3 254.701 246.6C254.701 244.6 256.201 242.5 258.801 241L312.101 210C316.801 207.3 324.001 206.9 328.201 209.3L383.901 241.2C385.801 242.3 386.901 243.9 386.901 245.6C386.901 247.6 385.401 249.7 382.801 251.2L329.501 282.2C326.801 283.7 323.501 284.5 320.401 284.5ZM321.101 209C318.201 209 315.101 209.7 312.701 211.1L259.401 242.1C257.201 243.4 256.001 245 256.001 246.6C256.001 247.9 256.801 249 258.401 249.9L314.101 281.8C317.901 284 324.501 283.7 328.901 281.1L382.201 250.1C384.401 248.8 385.601 247.2 385.601 245.6C385.601 244.3 384.801 243.2 383.201 242.3L327.501 210.4C325.701 209.5 323.401 209 321.101 209Z" fill="white"/>
<path d="M314.6 294.8L239.8 251.9C234.5 248.9 235.1 243.5 241.3 239.9L312.8 198.3C315.7 196.6 319.3 195.6 322.9 195.4C318.3 195.1 313.3 196.1 309.5 198.3L238 239.9C231.9 243.5 231.2 248.8 236.5 251.9L311.3 294.8C314.1 296.4 318 297 321.9 296.8C319.1 296.6 316.6 295.9 314.6 294.8Z" fill="white"/>
<path d="M320.1 288C316.5 288 313.3 287.2 310.9 285.9L236.1 243C233.5 241.5 232.2 239.4 232.2 237.1L232.1 211.6L269.5 211.5L309 188.5C312.3 186.6 316.7 185.5 321.1 185.5C324.7 185.5 327.9 186.3 330.3 187.6L371.5 211.2L408.9 211.1L409 237.1H408.9C408.5 239.5 406.7 241.7 403.7 243.4L332.2 285C328.9 286.9 324.5 288 320.1 288Z" fill="#393939"/>
<path d="M321.201 186C324.501 186 327.701 186.7 330.101 188L371.401 211.7L408.401 211.6L408.501 236.5C408.301 238.7 406.701 241.1 403.501 242.9L332.001 284.5C328.601 286.5 324.301 287.5 320.201 287.5C316.901 287.5 313.701 286.8 311.301 285.5L236.501 242.6C233.901 241.1 232.801 239.1 232.901 237.1L232.801 212.2L269.801 212.1L309.501 189C312.801 187 317.101 186 321.201 186ZM321.201 184.9C316.801 184.9 312.301 186 308.901 188L269.501 210.9L232.801 211H231.701V212.1L231.801 237V238.1C232.101 240.2 233.501 242.1 235.901 243.5L310.701 286.4C313.201 287.8 316.501 288.6 320.201 288.6C324.601 288.6 329.101 287.5 332.501 285.5L404.001 243.9C407.001 242.2 408.901 240 409.401 237.6H409.601V236.5L409.501 211.6V210.5H408.401L371.701 210.6L330.701 187.1C328.201 185.7 324.901 184.9 321.201 184.9Z" fill="black"/>
<path d="M235.201 238.7L235.101 213.8L272.101 213.7L311.801 190.6C317.901 187 327.201 186.6 332.501 189.7L373.801 213.4L408.501 213.3V211.6L371.501 211.7L330.201 188C324.901 185 315.601 185.4 309.501 188.9L269.801 212L232.801 212.1L232.901 237C232.801 239.1 233.901 241.1 236.501 242.5L236.901 242.7C235.701 241.6 235.101 240.2 235.201 238.7Z" fill="white"/>
<path d="M320.101 263.1C316.501 263.1 313.301 262.3 310.901 261L236.101 218.1C233.601 216.7 232.201 214.7 232.201 212.4C232.201 209.8 234.101 207.1 237.501 205.1L309.001 163.5C312.301 161.6 316.701 160.5 321.101 160.5C324.701 160.5 327.901 161.3 330.301 162.6L405.101 205.5C407.601 206.9 409.001 208.9 409.001 211.2C409.001 213.8 407.101 216.5 403.701 218.5L332.201 260.1C328.801 262 324.401 263.1 320.101 263.1Z" fill="black"/>
<path d="M321.101 161.2C324.401 161.2 327.601 161.9 330.001 163.2L404.801 206.1C410.101 209.1 409.501 214.5 403.301 218.1L331.801 259.7C328.401 261.7 324.101 262.7 320.001 262.7C316.701 262.7 313.501 262 311.101 260.7L236.301 217.8C231.001 214.8 231.601 209.4 237.801 205.8L309.301 164.2C312.701 162.2 317.001 161.2 321.101 161.2ZM321.101 160.1C316.701 160.1 312.201 161.2 308.801 163.2L237.301 204.8C233.701 206.9 231.701 209.7 231.701 212.5C231.701 214.9 233.201 217.1 235.901 218.6L310.701 261.5C313.201 262.9 316.501 263.7 320.201 263.7C324.601 263.7 329.101 262.6 332.501 260.6L404.001 219C407.601 216.9 409.601 214.1 409.601 211.3C409.601 208.9 408.101 206.7 405.401 205.2L330.601 162.3C328.101 160.8 324.801 160.1 321.101 160.1Z" fill="black"/>
<path d="M404.8 206.1L330 163.2C327.2 161.6 323.4 161 319.5 161.2C322.3 161.4 325 162 327 163.2L401.8 206.1C407.1 209.1 406.5 214.5 400.3 218.1L328.8 259.7C325.9 261.4 322.2 262.4 318.6 262.6C323.1 262.9 328 261.9 331.8 259.7L403.3 218.1C409.5 214.5 410.2 209.1 404.8 206.1Z" fill="#2AA7FF"/>
<path d="M320.3 250.3C317.7 250.3 315.2 249.8 313.3 248.7L257.6 216.8C255.7 215.7 254.6 214.1 254.6 212.4C254.6 210.4 256.1 208.3 258.7 206.8L312 175.8C316.7 173.1 323.9 172.7 328.1 175.1L383.8 207C385.7 208.1 386.8 209.7 386.8 211.4C386.8 213.4 385.3 215.5 382.7 217L329.4 248C326.7 249.5 323.4 250.3 320.3 250.3ZM313.9 247.6C317.7 249.8 324.3 249.5 328.7 246.9L382 215.9C384.2 214.6 385.4 213 385.4 211.4C385.4 210.1 384.6 209 383 208.1L327.3 176.2C323.5 174 316.9 174.3 312.5 176.9L259.2 207.9C257 209.2 255.8 210.8 255.8 212.4C255.8 213.7 256.6 214.8 258.2 215.7L313.9 247.6Z" fill="white"/>
<path d="M314.501 260.5L239.701 217.6C234.401 214.6 235.001 209.2 241.201 205.6L312.701 164C315.601 162.3 319.201 161.3 322.801 161.1C318.201 160.8 313.201 161.8 309.401 164L237.901 205.6C231.801 209.2 231.101 214.5 236.401 217.6L311.201 260.5C314.001 262.1 317.901 262.7 321.801 262.5C319.001 262.3 316.501 261.7 314.501 260.5Z" fill="white"/>
<path d="M320 253.8C316.4 253.8 313.2 253 310.8 251.7L236 208.8C233.4 207.3 232.1 205.2 232.1 202.9L232 177.4L269.4 177.3L308.9 154.3C312.2 152.4 316.6 151.3 321 151.3C324.6 151.3 327.8 152.1 330.2 153.4L371.4 177L408.8 176.9L408.9 202.9H408.8C408.4 205.3 406.6 207.5 403.6 209.2L332.1 250.8C328.8 252.7 324.4 253.8 320 253.8Z" fill="#393939"/>
<path d="M321.1 151.8C324.4 151.8 327.6 152.5 330 153.8L371.3 177.5L408.3 177.4L408.4 202.3C408.2 204.5 406.6 206.9 403.4 208.7L331.9 250.3C328.5 252.3 324.2 253.3 320.1 253.3C316.8 253.3 313.6 252.6 311.2 251.3L236.4 208.4C233.8 206.9 232.7 204.9 232.8 202.9L232.7 178L269.7 177.9L309.4 154.8C312.7 152.8 317 151.8 321.1 151.8ZM321.1 150.7C316.7 150.7 312.2 151.8 308.8 153.8L269.4 176.7L232.7 176.8H231.6V177.9L231.7 202.8V203.9C232 206 233.4 207.9 235.8 209.3L310.6 252.2C313.1 253.6 316.4 254.4 320.1 254.4C324.5 254.4 329 253.3 332.4 251.3L403.9 209.7C406.9 208 408.8 205.8 409.3 203.4H409.5V202.3L409.4 177.4V176.3H408.3L371.6 176.4L330.6 152.9C328.1 151.5 324.8 150.7 321.1 150.7Z" fill="black"/>
<path d="M235.101 204.5L235.001 179.6L272.001 179.5L311.701 156.4C317.801 152.8 327.101 152.4 332.401 155.5L373.701 179.2L408.401 179.1V177.4L371.401 177.5L330.101 153.8C324.801 150.8 315.501 151.2 309.401 154.7L269.701 177.8L232.701 177.9L232.801 202.8C232.701 204.9 233.801 206.9 236.401 208.3L236.801 208.5C235.601 207.3 235.001 205.9 235.101 204.5Z" fill="white"/>
<path d="M320 228.9C316.4 228.9 313.2 228.1 310.8 226.8L236 183.9C233.5 182.5 232.1 180.5 232.1 178.2C232.1 175.6 234 172.9 237.4 170.9L308.9 129.3C312.2 127.4 316.6 126.3 321 126.3C324.6 126.3 327.8 127.1 330.2 128.4L405 171.3C407.5 172.7 408.9 174.7 408.9 177C408.9 179.6 407 182.3 403.6 184.3L332.1 225.9C328.7 227.8 324.3 228.9 320 228.9Z" fill="black"/>
<path d="M321 126.9C324.3 126.9 327.5 127.6 329.9 128.9L404.7 171.8C410 174.8 409.4 180.2 403.2 183.8L331.7 225.4C328.3 227.4 324 228.4 319.9 228.4C316.6 228.4 313.4 227.7 311 226.4L236.2 183.5C230.9 180.5 231.5 175.1 237.7 171.5L309.2 129.9C312.6 127.9 316.9 126.9 321 126.9ZM321 125.8C316.6 125.8 312.1 126.9 308.7 128.9L237.2 170.5C233.6 172.6 231.6 175.4 231.6 178.2C231.6 180.6 233.1 182.8 235.8 184.3L310.6 227.2C313.1 228.6 316.4 229.4 320.1 229.4C324.5 229.4 329 228.3 332.4 226.3L403.9 184.7C407.5 182.6 409.5 179.8 409.5 177C409.5 174.6 408 172.4 405.3 170.9L330.5 128C328 126.6 324.7 125.8 321 125.8Z" fill="black"/>
<path d="M404.7 171.8L329.9 128.9C327.1 127.3 323.3 126.7 319.4 126.9C322.2 127.1 324.9 127.7 326.9 128.9L401.7 171.8C407 174.8 406.4 180.2 400.2 183.8L328.7 225.4C325.8 227.1 322.1 228.1 318.5 228.3C323 228.6 327.9 227.6 331.7 225.4L403.2 183.8C409.4 180.2 410 174.9 404.7 171.8Z" fill="#2AA7FF"/>
<path d="M320.2 216C317.6 216 315.1 215.5 313.2 214.4L257.5 182.5C255.6 181.4 254.5 179.8 254.5 178.1C254.5 176.1 256 174 258.6 172.5L311.9 141.5C316.6 138.8 323.8 138.4 328 140.8L383.7 172.7C385.6 173.8 386.7 175.4 386.7 177.1C386.7 179.1 385.2 181.2 382.6 182.7L329.3 213.7C326.6 215.2 323.3 216 320.2 216ZM313.8 213.3C317.6 215.5 324.2 215.2 328.6 212.6L381.9 181.6C384.1 180.3 385.3 178.7 385.3 177.1C385.3 175.8 384.5 174.7 382.9 173.8L327.2 141.9C323.4 139.7 316.8 140 312.4 142.6L259.1 173.6C256.9 174.9 255.7 176.5 255.7 178.1C255.7 179.4 256.5 180.5 258.1 181.4L313.8 213.3Z" fill="white"/>
<path d="M314.401 226.3L239.601 183.4C234.301 180.4 234.901 175 241.101 171.4L312.601 129.8C315.501 128.1 319.101 127.1 322.701 126.9C318.101 126.6 313.101 127.6 309.301 129.8L237.801 171.4C231.701 175 231.001 180.3 236.301 183.4L311.101 226.3C313.901 227.9 317.801 228.5 321.701 228.3C318.901 228.1 316.401 227.5 314.401 226.3Z" fill="white"/>
<path d="M319.9 219.5C316.3 219.5 313.1 218.7 310.7 217.4L235.9 174.5C233.3 173 232 170.9 232 168.6L231.9 143.1L269.3 143L308.8 120C312.1 118.1 316.5 117 320.9 117C324.5 117 327.7 117.8 330.1 119.1L371.3 142.7L408.7 142.6L408.8 168.6H408.7C408.3 171 406.5 173.2 403.5 174.9L332 216.5C328.7 218.4 324.3 219.5 319.9 219.5Z" fill="#B2BAC1"/>
<path d="M321 117.6C324.3 117.6 327.5 118.3 329.9 119.6L371.2 143.3L408.2 143.2L408.3 168.1C408.1 170.3 406.5 172.7 403.3 174.5L331.8 216.1C328.4 218.1 324.1 219.1 320 219.1C316.7 219.1 313.5 218.4 311.1 217.1L236.3 174.2C233.7 172.7 232.6 170.7 232.7 168.7L232.6 143.8L269.6 143.7L309.3 120.6C312.6 118.6 316.9 117.6 321 117.6ZM321 116.4C316.6 116.4 312.1 117.5 308.7 119.5L269.3 142.4L232.6 142.5H231.5V143.6L231.6 168.5V169.6C231.9 171.7 233.3 173.6 235.7 175L310.5 217.9C313 219.3 316.3 220.1 320 220.1C324.4 220.1 328.9 219 332.3 217L403.8 175.4C406.8 173.7 408.7 171.5 409.2 169.1H409.4V168L409.3 143.1V142H408.2L371.5 142.1L330.5 118.6C328 117.2 324.7 116.4 321 116.4Z" fill="black"/>
<path d="M235 170.2L234.9 145.3L271.9 145.2L311.6 122.1C317.7 118.5 327 118.1 332.3 121.2L373.6 144.9L408.3 144.8V143.1L371.3 143.2L330 119.5C324.7 116.5 315.4 116.9 309.3 120.4L269.6 143.5L232.6 143.6L232.7 168.5C232.6 170.6 233.7 172.6 236.3 174L236.7 174.2C235.4 173.1 234.9 171.7 235 170.2Z" fill="white"/>
<path d="M319.9 194.7C316.3 194.7 313.1 193.9 310.7 192.6L235.9 149.7C233.4 148.3 232 146.3 232 144C232 141.4 233.9 138.7 237.3 136.7L308.8 95.1C312.1 93.2 316.5 92.1 320.9 92.1C324.5 92.1 327.7 92.9 330.1 94.2L404.9 137.1C407.4 138.5 408.8 140.5 408.8 142.8C408.8 145.4 406.9 148.1 403.5 150.1L332 191.7C328.6 193.6 324.2 194.7 319.9 194.7Z" fill="#2AA7FF"/>
<path d="M320.9 92.7C324.2 92.7 327.4 93.4 329.8 94.7L404.6 137.6C409.9 140.6 409.3 146 403.1 149.6L331.6 191.2C328.2 193.2 323.9 194.2 319.8 194.2C316.5 194.2 313.3 193.5 310.9 192.2L236.1 149.3C230.8 146.3 231.4 140.9 237.6 137.3L309.1 95.7C312.5 93.7 316.8 92.7 320.9 92.7ZM320.9 91.6C316.5 91.6 312 92.7 308.6 94.7L237.1 136.3C233.5 138.4 231.5 141.2 231.5 144C231.5 146.4 233 148.6 235.7 150.1L310.5 193C313 194.4 316.3 195.2 320 195.2C324.4 195.2 328.9 194.1 332.3 192.1L403.8 150.5C407.4 148.4 409.4 145.6 409.4 142.8C409.4 140.4 407.9 138.2 405.2 136.7L330.4 93.8C327.9 92.4 324.6 91.6 320.9 91.6Z" fill="black"/>
<path d="M319.9 194.7C316.3 194.7 313.1 193.9 310.7 192.6L235.9 149.7C233.4 148.3 232 146.3 232 144C232 141.4 233.9 138.7 237.3 136.7L308.8 95.1C312.1 93.2 316.5 92.1 320.9 92.1C324.5 92.1 327.7 92.9 330.1 94.2L404.9 137.1C407.4 138.5 408.8 140.5 408.8 142.8C408.8 145.4 406.9 148.1 403.5 150.1L332 191.7C328.6 193.6 324.2 194.7 319.9 194.7Z" fill="#B0E1FF"/>
<path d="M320.9 92.7C324.2 92.7 327.4 93.4 329.8 94.7L404.6 137.6C409.9 140.6 409.3 146 403.1 149.6L331.6 191.2C328.2 193.2 323.9 194.2 319.8 194.2C316.5 194.2 313.3 193.5 310.9 192.2L236.1 149.3C230.8 146.3 231.4 140.9 237.6 137.3L309.1 95.7C312.5 93.7 316.8 92.7 320.9 92.7ZM320.9 91.6C316.5 91.6 312 92.7 308.6 94.7L237.1 136.3C233.5 138.4 231.5 141.2 231.5 144C231.5 146.4 233 148.6 235.7 150.1L310.5 193C313 194.4 316.3 195.2 320 195.2C324.4 195.2 328.9 194.1 332.3 192.1L403.8 150.5C407.4 148.4 409.4 145.6 409.4 142.8C409.4 140.4 407.9 138.2 405.2 136.7L330.4 93.8C327.9 92.4 324.6 91.6 320.9 91.6Z" fill="black"/>
<path d="M320 178.1C317.6 178.1 315.3 177.6 313.7 176.7L263.3 147.8C261.6 146.8 260.6 145.4 260.6 143.8C260.6 142 261.9 140.1 264.3 138.8L312.5 110.8C314.8 109.5 317.8 108.7 320.7 108.7C323.1 108.7 325.4 109.2 327 110.1L377.4 139C379.1 140 380.1 141.4 380.1 143C380.1 144.8 378.8 146.7 376.4 148L328.2 176C326 177.4 323 178.1 320 178.1Z" fill="#393939"/>
<path d="M320.8 109.2C323.1 109.2 325.2 109.7 326.8 110.6L377.2 139.5C380.8 141.6 380.3 145.2 376.2 147.6L328 175.6C325.7 176.9 322.8 177.6 320.1 177.6C317.8 177.6 315.7 177.1 314.1 176.2L263.7 147.3C260.1 145.2 260.6 141.6 264.7 139.2L312.9 111.2C315.1 109.9 318 109.2 320.8 109.2ZM320.8 108.1C317.7 108.1 314.7 108.9 312.3 110.2L264.1 138.2C261.6 139.7 260.1 141.7 260.1 143.7C260.1 145.5 261.2 147 263.1 148.1L313.5 177C315.2 178 317.5 178.5 320.1 178.5C323.2 178.5 326.2 177.7 328.6 176.4L376.8 148.4C379.3 146.9 380.8 144.9 380.8 142.9C380.8 141.1 379.7 139.6 377.8 138.5L327.4 109.6C325.6 108.7 323.3 108.1 320.8 108.1Z" fill="black"/>
<path d="M327.8 114.9C324.2 112.8 318 113.1 313.8 115.5L265.6 143.5C264.1 144.4 263 145.5 262.5 146.6C262.8 146.9 263.1 147.1 263.6 147.4L314 176.3C317.6 178.4 323.8 178.1 328 175.7L376.2 147.7C377.7 146.8 378.8 145.7 379.3 144.6C379 144.3 378.7 144.1 378.2 143.8L327.8 114.9Z" fill="#2AA7FF" stroke="black" stroke-width="1.1" stroke-miterlimit="10"/>
<path d="M404.6 137.6L329.8 94.7C327 93.1 323.2 92.5 319.3 92.7C322.1 92.9 324.8 93.5 326.8 94.7L401.6 137.6C406.9 140.6 406.3 146 400.1 149.6L328.6 191.2C325.7 192.9 322 193.9 318.4 194.1C322.9 194.4 327.8 193.4 331.6 191.2L403.1 149.6C409.3 146 409.9 140.7 404.6 137.6Z" fill="#2AA7FF"/>
<path d="M320.001 181.8C317.401 181.8 314.901 181.3 313.001 180.2L257.301 148.3C255.401 147.2 254.301 145.6 254.301 143.9C254.301 141.9 255.801 139.8 258.401 138.3L311.701 107.3C316.401 104.6 323.601 104.2 327.801 106.6L383.501 138.5C385.401 139.6 386.501 141.2 386.501 142.9C386.501 144.9 385.001 147 382.401 148.5L329.101 179.5C326.501 181 323.201 181.8 320.001 181.8ZM313.701 179.1C317.501 181.3 324.101 181 328.501 178.4L381.801 147.4C384.001 146.1 385.201 144.5 385.201 142.9C385.201 141.6 384.401 140.5 382.801 139.6L327.101 107.7C323.301 105.5 316.701 105.8 312.301 108.4L259.001 139.4C256.801 140.7 255.601 142.3 255.601 143.9C255.601 145.2 256.401 146.3 258.001 147.2L313.701 179.1Z" fill="white"/>
<path d="M314.3 192.1L239.499 149.2C234.199 146.2 234.799 140.8 240.999 137.2L312.499 95.6C315.399 93.9 318.999 92.9 322.599 92.7C317.999 92.4 313 93.4 309.2 95.6L237.7 137.2C231.6 140.8 230.9 146.1 236.2 149.2L310.999 192.1C313.799 193.7 317.699 194.3 321.599 194.1C318.799 193.9 316.3 193.2 314.3 192.1Z" fill="black"/>
<path d="M201.301 393.3C197.701 393.3 194.501 392.5 192.101 391.2L117.301 348.3C114.701 346.8 113.401 344.7 113.401 342.4L113.301 316.9L150.701 316.8L190.201 293.8C193.501 291.9 197.901 290.8 202.301 290.8C205.901 290.8 209.101 291.6 211.501 292.9L252.701 316.5L290.101 316.4L290.201 342.4H290.101C289.701 344.8 287.901 347 284.901 348.7L213.401 390.3C210.101 392.2 205.701 393.3 201.301 393.3Z" fill="#393939"/>
<path d="M202.4 291.3C205.7 291.3 208.9 292 211.3 293.3L252.6 317L289.6 316.9L289.7 341.8C289.5 344 287.9 346.4 284.7 348.2L213.2 389.8C209.8 391.8 205.5 392.8 201.4 392.8C198.1 392.8 194.9 392.1 192.5 390.8L117.7 347.9C115.1 346.4 114 344.4 114.1 342.4L114 317.5L151 317.4L190.7 294.3C194 292.3 198.3 291.3 202.4 291.3ZM202.4 290.2C198 290.2 193.5 291.3 190.1 293.3L150.7 316.2L114 316.3H112.9V317.4L113 342.3V343.4C113.3 345.5 114.7 347.4 117.1 348.8L191.9 391.7C194.4 393.1 197.7 393.9 201.4 393.9C205.8 393.9 210.3 392.8 213.7 390.8L285.2 349.2C288.2 347.5 290.1 345.3 290.6 342.9H290.8V341.8L290.7 316.9V315.8H289.6L252.9 315.9L211.9 292.4C209.4 291 206 290.2 202.4 290.2Z" fill="black"/>
<path d="M116.4 344L116.3 319.1L153.3 319L193 295.9C199.1 292.3 208.4 291.9 213.7 295L255 318.7L289.7 318.6V316.9L252.7 317L211.3 293.4C206 290.4 196.7 290.8 190.6 294.3L150.9 317.4L113.9 316.6L114 341.5V342.4C113.9 344.5 115 346.5 117.6 347.9L118 348.1C116.8 346.9 116.3 345.4 116.4 344Z" fill="#B0E1FF"/>
<path d="M201.201 368.4C197.601 368.4 194.401 367.6 192.001 366.3L117.201 323.4C114.701 322 113.301 320 113.301 317.7C113.301 315.1 115.201 312.4 118.601 310.4L190.101 268.8C193.401 266.9 197.801 265.8 202.201 265.8C205.801 265.8 209.001 266.6 211.401 267.9L286.201 310.8C288.701 312.2 290.101 314.2 290.101 316.5C290.101 319.1 288.201 321.8 284.801 323.8L213.301 365.4C210.001 367.3 205.601 368.4 201.201 368.4Z" fill="black"/>
<path d="M202.3 266.5C205.6 266.5 208.8 267.2 211.2 268.5L286 311.4C291.3 314.4 290.7 319.8 284.5 323.4L213 365C209.6 367 205.3 368 201.2 368C197.9 368 194.7 367.3 192.3 366L117.5 323.1C112.2 320.1 112.8 314.7 119 311.1L190.5 269.5C193.9 267.5 198.2 266.5 202.3 266.5ZM202.3 265.4C197.9 265.4 193.4 266.5 190 268.5L118.5 310.1C114.9 312.2 112.9 315 112.9 317.8C112.9 320.2 114.4 322.4 117.1 323.9L191.9 366.8C194.4 368.2 197.7 369 201.4 369C205.8 369 210.3 367.9 213.7 365.9L285.2 324.3C288.8 322.2 290.8 319.4 290.8 316.6C290.8 314.2 289.3 312 286.6 310.5L211.8 267.6C209.3 266.1 206 265.4 202.3 265.4Z" fill="black"/>
<path d="M286.001 311.4L211.201 268.5C208.401 266.9 204.601 266.3 200.701 266.5C203.501 266.7 206.201 267.3 208.201 268.5L283.001 311.4C288.301 314.4 287.701 319.8 281.501 323.4L210.001 365C207.101 366.7 203.401 367.7 199.801 367.9C204.301 368.2 209.201 367.2 213.001 365L284.501 323.4C290.701 319.8 291.301 314.4 286.001 311.4Z" fill="#2AA7FF"/>
<path d="M201.401 355.6C198.801 355.6 196.301 355.1 194.401 354L138.701 322.1C136.801 321 135.701 319.4 135.701 317.7C135.701 315.6 137.201 313.6 139.801 312.1L193.101 281.1C197.801 278.4 205.001 278 209.201 280.4L264.901 312.3C266.801 313.4 267.901 315 267.901 316.7C267.901 318.7 266.401 320.8 263.801 322.3L210.501 353.3C207.901 354.8 204.601 355.5 201.401 355.6ZM195.101 352.9C198.901 355.1 205.501 354.8 209.901 352.2L263.201 321.2C265.401 319.9 266.601 318.3 266.601 316.7C266.601 315.4 265.801 314.3 264.201 313.4L208.501 281.5C204.701 279.3 198.101 279.6 193.701 282.2L140.401 313.2C138.201 314.5 137.001 316.1 137.001 317.7C137.001 319 137.801 320.1 139.401 321L195.101 352.9Z" fill="white"/>
<path d="M195.7 365.8L120.9 322.9C115.6 319.9 116.2 314.5 122.4 310.9L193.9 269.3C196.8 267.6 200.4 266.6 204 266.4C199.4 266.1 194.4 267.1 190.6 269.3L119.1 310.9C113 314.5 112.3 319.8 117.6 321.9L192.4 364.8C195.2 367.3 199.1 368 203 367.7C200.2 367.6 197.7 367 195.7 365.8Z" fill="white"/>
<path d="M201.201 359.1C197.601 359.1 194.401 358.3 192.001 357L117.201 314.1C114.601 312.6 113.301 310.5 113.301 308.2L113.201 282.7L150.601 282.6L190.101 259.6C193.401 257.7 197.801 256.6 202.201 256.6C205.801 256.6 209.001 257.4 211.401 258.7L252.601 282.3L290.001 282.2L290.101 308.2H290.001C289.601 310.6 287.801 312.8 284.801 314.5L213.301 356.1C210.001 358 205.601 359.1 201.201 359.1Z" fill="#393939"/>
<path d="M202.301 257.1C205.601 257.1 208.801 257.8 211.201 259.1L252.501 282.8L289.501 282.7L289.601 307.6C289.401 309.8 287.801 312.2 284.601 314L213.101 355.6C209.701 357.6 205.401 358.6 201.301 358.6C198.001 358.6 194.801 357.9 192.401 356.6L117.601 313.7C115.001 312.2 113.901 310.2 114.001 308.2L113.901 283.3L150.901 283.2L190.601 260.1C193.901 258.1 198.201 257.1 202.301 257.1ZM202.301 256C197.901 256 193.401 257.1 190.001 259.1L150.601 282L113.901 282.1H112.801V283.2L112.901 308.1V309.2C113.201 311.3 114.601 313.2 117.001 314.6L191.801 357.5C194.301 358.9 197.601 359.7 201.301 359.7C205.701 359.7 210.201 358.6 213.601 356.6L285.101 315C288.101 313.3 290.001 311.1 290.501 308.7H290.701V307.6L290.601 282.7V281.6H289.501L252.801 281.7L211.801 258.2C209.301 256.8 205.901 256 202.301 256Z" fill="black"/>
<path d="M116.3 308.8L116.2 283.9L153.2 283.8L192.9 260.7C199 257.1 208.3 256.7 213.6 259.8L254.9 283.5L289.6 283.4V281.7L252.6 281.8L211.3 258.1C206 255.1 196.7 255.5 190.6 259L150.9 282.1L113.9 282.2L114 307.1C113.9 309.2 115 311.2 117.6 312.6L118 312.8C116.7 311.7 116.2 310.3 116.3 308.8Z" fill="#B0E1FF"/>
<path d="M201.101 334.2C197.501 334.2 194.301 333.4 191.901 332.1L117.101 289.2C114.601 287.8 113.201 285.8 113.201 283.5C113.201 280.9 115.101 278.2 118.501 276.2L190.001 234.6C193.301 232.7 197.701 231.6 202.101 231.6C205.701 231.6 208.901 232.4 211.301 233.7L286.101 276.6C288.601 278 290.001 280 290.001 282.3C290.001 284.9 288.101 287.6 284.701 289.6L213.201 331.2C209.901 333.1 205.501 334.2 201.101 334.2Z" fill="black"/>
<path d="M202.201 232.2C205.501 232.2 208.701 232.9 211.101 234.2L285.901 277.1C291.201 280.1 290.601 285.5 284.401 289.1L212.901 330.7C209.501 332.7 205.201 333.7 201.101 333.7C197.801 333.7 194.601 333 192.201 331.7L117.401 288.8C112.101 285.8 112.701 280.4 118.901 276.8L190.401 235.2C193.801 233.2 198.101 232.2 202.201 232.2ZM202.201 231.1C197.801 231.1 193.301 232.2 189.901 234.2L118.401 275.8C114.801 277.9 112.801 280.7 112.801 283.5C112.801 285.9 114.301 288.1 117.001 289.6L191.801 332.5C194.301 333.9 197.601 334.7 201.301 334.7C205.701 334.7 210.201 333.6 213.601 331.6L285.101 290C288.701 287.9 290.701 285.1 290.701 282.3C290.701 279.9 289.201 277.7 286.501 276.2L211.701 233.3C209.201 231.9 205.901 231.1 202.201 231.1Z" fill="black"/>
<path d="M285.901 277.1L211.101 234.2C208.301 232.6 204.501 232 200.601 232.2C203.401 232.4 206.101 233 208.101 234.2L282.901 277.1C288.201 280.1 287.601 285.5 281.401 289.1L209.901 330.7C207.001 332.4 203.301 333.4 199.701 333.6C204.201 333.9 209.101 332.9 212.901 330.7L284.401 289.1C290.601 285.5 291.201 280.2 285.901 277.1Z" fill="#2AA7FF"/>
<path d="M201.3 321.3C198.7 321.3 196.2 320.8 194.3 319.7L138.6 287.8C136.7 286.7 135.6 285.1 135.6 283.4C135.6 281.4 137.1 279.3 139.7 277.8L193 246.8C197.7 244.1 204.9 243.7 209.1 246.1L264.8 278C266.7 279.1 267.8 280.7 267.8 282.4C267.8 284.4 266.3 286.5 263.7 288L210.4 319C207.8 320.5 204.5 321.3 201.3 321.3ZM202 245.8C199.1 245.8 196 246.5 193.6 247.9L140.3 278.9C138.1 280.2 136.9 281.8 136.9 283.4C136.9 284.7 137.7 285.8 139.3 286.7L195 318.6C198.8 320.8 205.4 320.5 209.8 317.9L263.1 286.9C265.3 285.6 266.5 284 266.5 282.4C266.5 281.1 265.7 280 264.1 279.1L208.4 247.2C206.7 246.3 204.4 245.8 202 245.8Z" fill="white"/>
<path d="M195.6 331.6L120.8 288.7C115.5 285.7 116.1 280.3 122.3 276.7L193.8 235.1C196.7 233.4 200.3 232.4 203.9 232.2C199.3 231.9 194.3 232.9 190.5 235.1L119 276.7C112.9 280.3 112.2 285.6 117.5 288.7L192.3 331.6C195.1 333.2 199 333.8 202.9 333.6C200.1 333.4 197.6 332.7 195.6 331.6Z" fill="white"/>
<path d="M201.1 324.8C197.5 324.8 194.3 324 191.9 322.7L117.1 279.8C114.5 278.3 113.2 276.2 113.2 273.9L113.1 248.4L150.5 248.3L190 225.3C193.3 223.4 197.7 222.3 202.1 222.3C205.7 222.3 208.9 223.1 211.3 224.4L252.5 248L289.9 247.9L290 273.9H289.9C289.5 276.3 287.7 278.5 284.7 280.2L213.2 321.8C209.8 323.7 205.5 324.8 201.1 324.8Z" fill="#393939"/>
<path d="M202.201 222.8C205.501 222.8 208.701 223.5 211.101 224.8L252.401 248.5L289.401 248.4L289.501 273.3C289.301 275.5 287.701 277.9 284.501 279.7L213.001 321.3C209.601 323.3 205.301 324.3 201.201 324.3C197.901 324.3 194.701 323.6 192.301 322.3L117.501 279.4C114.901 277.9 113.801 275.9 113.901 273.9L113.801 249L150.801 248.9L190.501 225.8C193.801 223.9 198.101 222.8 202.201 222.8ZM202.201 221.7C197.801 221.7 193.301 222.8 189.901 224.8L150.501 247.7L113.801 247.8H112.701V248.9L112.801 273.8V274.9C113.101 277 114.501 278.9 116.901 280.3L191.701 323.2C194.201 324.6 197.501 325.4 201.201 325.4C205.601 325.4 210.101 324.3 213.501 322.3L285.001 280.7C288.001 279 289.901 276.8 290.401 274.4H290.601V273.3L290.501 248.4V247.3H289.401L252.701 247.4L211.701 223.9C209.201 222.5 205.801 221.7 202.201 221.7Z" fill="black"/>
<path d="M116.201 275.5V274.6L116.101 249.7L153.101 250.5L192.801 227.4C198.901 223.8 208.201 223.4 213.501 226.5L254.801 250.2L289.501 250.1V248.4L252.501 248.5L211.201 224.8C205.901 221.8 196.601 222.2 190.501 225.7L150.801 248.8L113.801 248.9L113.901 273.8C113.801 275.9 114.901 277.9 117.501 279.3L117.901 279.5C116.601 278.4 116.101 277 116.201 275.5Z" fill="#B0E1FF"/>
<path d="M201 300C197.4 300 194.2 299.2 191.8 297.9L117 255C114.5 253.6 113.1 251.6 113.1 249.3C113.1 246.7 115 244 118.4 242L189.9 200.4C193.2 198.5 197.6 197.4 202 197.4C205.6 197.4 208.8 198.2 211.2 199.5L286 242.4C288.5 243.8 289.9 245.8 289.9 248.1C289.9 250.7 288 253.4 284.6 255.4L213.1 297C209.8 298.9 205.4 300 201 300Z" fill="black"/>
<path d="M202.101 198C205.401 198 208.601 198.7 211.001 200L285.801 242.9C291.101 245.9 290.501 251.3 284.301 254.9L212.801 296.5C209.401 298.5 205.101 299.5 201.001 299.5C197.701 299.5 194.501 298.8 192.101 297.5L117.301 254.6C112.001 251.6 112.601 246.2 118.801 242.6L190.301 201C193.701 199 198.001 198 202.101 198ZM202.101 196.9C197.701 196.9 193.201 198 189.801 200L118.301 241.6C114.701 243.7 112.701 246.5 112.701 249.3C112.701 251.7 114.201 253.9 116.901 255.4L191.701 298.3C194.201 299.7 197.501 300.5 201.201 300.5C205.601 300.5 210.101 299.4 213.501 297.4L285.001 255.8C288.601 253.7 290.601 250.9 290.601 248.1C290.601 245.7 289.101 243.5 286.401 242L211.601 199.1C209.101 197.7 205.801 196.9 202.101 196.9Z" fill="black"/>
<path d="M285.8 242.9L211 200C208.2 198.4 204.4 197.8 200.5 198C203.3 198.2 206 198.8 208 200L282.8 242.9C288.1 245.9 287.5 251.3 281.3 254.9L209.8 296.5C206.9 298.2 203.2 299.2 199.6 299.4C204.1 299.7 209 298.7 212.8 296.5L284.3 254.9C290.5 251.3 291.1 246 285.8 242.9Z" fill="#2AA7FF"/>
<path d="M201.2 287.1C198.6 287.1 196.1 286.6 194.2 285.5L138.5 253.6C136.6 252.5 135.5 250.9 135.5 249.2C135.5 247.2 137 245.1 139.6 243.6L192.9 212.6C197.6 209.9 204.8 209.5 209 211.9L264.7 243.8C266.6 244.9 267.7 246.5 267.7 248.2C267.7 250.2 266.2 252.3 263.6 253.8L210.3 284.8C207.7 286.3 204.4 287.1 201.2 287.1ZM201.9 211.6C199 211.6 195.9 212.3 193.5 213.7L140.2 244.7C138 246 136.8 247.6 136.8 249.2C136.8 250.5 137.6 251.6 139.2 252.5L194.9 284.4C198.7 286.6 205.3 286.3 209.7 283.7L263 252.7C265.2 251.4 266.4 249.8 266.4 248.2C266.4 246.9 265.6 245.8 264 244.9L208.3 213C206.6 212 204.3 211.6 201.9 211.6Z" fill="white"/>
<path d="M195.501 297.4L120.701 254.5C115.401 251.5 116.001 246.1 122.201 242.5L193.701 200.9C196.601 199.2 200.201 198.2 203.801 198C199.201 197.7 194.201 198.7 190.401 200.9L118.901 242.5C112.801 246.1 112.101 251.4 117.401 254.5L192.201 297.4C195.001 299 198.901 299.6 202.801 299.4C200.001 299.2 197.501 298.5 195.501 297.4Z" fill="white"/>
<path d="M201 290.6C197.4 290.6 194.2 289.8 191.8 288.5L117 245.6C114.4 244.1 113.1 242 113.1 239.7L113 214.2L150.4 214.1L189.9 191.1C193.2 189.2 197.6 188.1 202 188.1C205.6 188.1 208.8 188.9 211.2 190.2L252.4 213.8L289.8 213.7L289.9 239.6H289.8C289.4 242 287.6 244.2 284.6 246L213.1 287.6C209.7 289.5 205.3 290.6 201 290.6Z" fill="#B2BAC1"/>
<path d="M202.1 188.6C205.4 188.6 208.6 189.3 211 190.6L252.3 214.3L289.3 214.2L289.4 239.1C289.2 241.3 287.6 243.7 284.4 245.5L212.9 287.1C209.5 289.1 205.2 290.1 201.1 290.1C197.8 290.1 194.6 289.4 192.2 288.1L117.4 245.2C114.8 243.7 113.7 241.7 113.8 239.7L113.7 214.8L150.7 214.7L190.4 191.6C193.7 189.6 198 188.6 202.1 188.6ZM202.1 187.5C197.7 187.5 193.2 188.6 189.8 190.6L150.4 213.5L113.7 213.6H112.6V214.7L112.7 239.6V240.7C113 242.8 114.4 244.7 116.8 246.1L191.6 289C194.1 290.4 197.4 291.2 201.1 291.2C205.5 291.2 210 290.1 213.4 288.1L284.9 246.5C287.9 244.8 289.8 242.6 290.3 240.2H290.5V239.1L290.4 214.2V213.1H289.3L252.6 213.2L211.6 189.7C209.1 188.3 205.7 187.5 202.1 187.5Z" fill="black"/>
<path d="M116.101 241.3L116.001 216.4L153.001 216.3L192.701 193.2C198.801 189.6 208.101 189.2 213.401 192.3L254.701 216L289.401 215.9V214.2L252.401 214.3L211.101 190.6C205.801 187.6 196.501 188 190.401 191.5L150.701 214.6L113.701 214.7L113.801 239.6C113.701 241.7 114.801 243.7 117.401 245.1L117.801 245.3C116.501 244.2 116.001 242.7 116.101 241.3Z" fill="#B0E1FF"/>
<path d="M192 263.1L117.2 220.2C111.9 217.2 112.5 211.8 118.7 208.2L190.2 166.6C196.3 163 205.6 162.6 210.9 165.7L285.7 208.6C291 211.6 290.4 217 284.2 220.6L212.7 262.2C206.6 265.8 197.3 266.2 192 263.1Z" fill="#2AA7FF" stroke="black" stroke-width="1.1" stroke-miterlimit="10"/>
<path d="M188.701 277L125.401 240.7C124.801 240.4 124.401 239.5 124.301 238.7V235.7C124.301 234.9 124.801 234.6 125.301 234.9L188.601 271.2C189.201 271.5 189.601 272.4 189.701 273.2V276.2C189.801 277 189.301 277.3 188.701 277Z" fill="#2AA7FF" stroke="black" stroke-width="1.1" stroke-miterlimit="10"/>
<path d="M126.9 239.9C126.3 239.6 125.9 238.7 125.8 237.9V235.1L125.5 234.9C124.9 234.6 124.5 234.9 124.5 235.7V238.7C124.5 239.5 125 240.4 125.6 240.7L188.9 277C189.5 277.3 189.9 277 189.9 276.2V276L126.9 239.9Z" fill="black"/>
<path d="M202.9 262.5C199.3 262.5 196.1 261.7 193.7 260.4L118.9 217.5C116.4 216.1 115 214.1 115 211.8C115 209.2 116.9 206.5 120.3 204.5L191.8 162.9C195.1 161 199.5 159.9 203.9 159.9C207.5 159.9 210.7 160.7 213.1 162L287.9 204.9C290.4 206.3 291.8 208.3 291.8 210.6C291.8 213.2 289.9 215.9 286.5 217.9L215 259.5C211.7 261.4 207.3 262.5 202.9 262.5Z" fill="#2AA7FF"/>
<path d="M204 160.5C207.3 160.5 210.5 161.2 212.9 162.5L287.7 205.4C293 208.4 292.4 213.8 286.2 217.4L214.7 259C211.3 261 207 262 202.9 262C199.6 262 196.4 261.3 194 260L119.2 217.1C113.9 214.1 114.5 208.7 120.7 205.1L192.2 163.5C195.6 161.5 199.9 160.5 204 160.5ZM204 159.4C199.6 159.4 195.1 160.5 191.7 162.5L120.2 204.1C116.6 206.2 114.6 209 114.6 211.8C114.6 214.2 116.1 216.4 118.8 217.9L193.6 260.8C196.1 262.2 199.4 263 203.1 263C207.5 263 212 261.9 215.4 259.9L286.9 218.3C290.5 216.2 292.5 213.4 292.5 210.6C292.5 208.2 291 206 288.3 204.5L213.5 161.6C211 160.2 207.7 159.4 204 159.4Z" fill="black"/>
<path d="M171.801 175.4L234.901 175.2L216.001 164.3L190.701 164.4L171.801 175.4Z" fill="#B0E1FF"/>
<path d="M139.201 194.4L267.701 194L248.701 183.1L158.101 183.4L139.201 194.4Z" fill="#B0E1FF"/>
<path d="M287.7 205.5L212.9 162.6C210.1 161 206.3 160.4 202.4 160.6C205.2 160.8 207.9 161.4 209.9 162.6L284.7 205.5C290 208.5 289.4 213.9 283.2 217.5L211.7 259.1C208.8 260.8 205.1 261.8 201.5 262C206 262.3 210.9 261.3 214.7 259.1L286.3 217.4C292.4 213.9 293 208.5 287.7 205.5Z" fill="#B0E1FF"/>
<path d="M203.1 249.6C200.5 249.6 198 249.1 196.1 248L140.4 216.1C138.5 215 137.4 213.4 137.4 211.7C137.4 209.7 138.9 207.6 141.5 206.1L194.8 175.1C199.5 172.4 206.7 172 210.9 174.4L266.6 206.3C268.5 207.4 269.6 209 269.6 210.7C269.6 212.7 268.1 214.8 265.5 216.3L212.2 247.3C209.6 248.9 206.3 249.6 203.1 249.6ZM196.8 246.9C200.6 249.1 207.2 248.8 211.6 246.2L264.9 215.2C267.1 213.9 268.3 212.3 268.3 210.7C268.3 209.4 267.5 208.3 265.9 207.4L210.2 175.5C206.4 173.3 199.8 173.6 195.4 176.2L142.1 207.2C139.9 208.5 138.7 210.1 138.7 211.7C138.7 213 139.5 214.1 141.1 215L196.8 246.9Z" fill="#393939"/>
<path d="M197.401 259.9L122.601 217C117.301 214 117.901 208.6 124.101 205L195.601 163.4C198.501 161.7 202.101 160.7 205.701 160.5C201.101 160.2 196.101 161.2 192.301 163.4L120.801 205C114.701 208.6 114.001 213.9 119.301 217L194.101 259.9C196.901 261.5 200.801 262.1 204.701 261.9C201.901 261.7 199.401 261.1 197.401 259.9Z" fill="#B0E1FF"/>
<path d="M446.301 395C442.701 395 439.501 394.2 437.101 392.9L362.301 350C359.701 348.5 358.401 346.4 358.401 344.1L358.301 318.6L395.701 318.5L435.201 295.5C438.501 293.6 442.901 292.5 447.301 292.5C450.901 292.5 454.101 293.3 456.501 294.6L497.701 318.2L535.101 318.1L535.201 344.1H535.101C534.701 346.5 532.901 348.7 529.901 350.4L458.401 392C455.101 393.9 450.701 395 446.301 395Z" fill="#0D4A70"/>
<path d="M447.4 293C450.7 293 453.9 293.7 456.3 295L497.6 318.7L534.6 318.6L534.7 343.5C534.5 345.7 532.9 348.1 529.7 349.9L458.2 391.5C454.8 393.5 450.5 394.5 446.4 394.5C443.1 394.5 439.9 393.8 437.5 392.5L362.7 349.6C360.1 348.1 359 346.1 359.1 344.1L359 319.2L396 319.1L435.7 296C439 294 443.3 293 447.4 293ZM447.4 291.9C443 291.9 438.5 293 435.1 295L395.7 317.9L359 318H357.9V319.1L358 344V345.1C358.3 347.2 359.7 349.1 362.1 350.5L436.9 393.4C439.4 394.8 442.7 395.6 446.4 395.6C450.8 395.6 455.3 394.5 458.7 392.5L530.2 350.9C533.2 349.2 535.1 347 535.6 344.6H535.8V343.5L535.7 318.6V317.5H534.6L497.9 317.6L456.9 294.1C454.4 292.7 451.1 291.9 447.4 291.9Z" fill="black"/>
<path d="M361.4 345.7L361.3 320.8L398.3 320.7L438 297.6C444.1 294 453.4 293.6 458.7 296.7L500 320.4L534.7 320.3V318.6L497.7 318.7L456.4 295C451.1 292 441.8 292.4 435.7 295.9L396 319L359 319.1L359.1 344C359 346.1 360.1 348.1 362.7 349.5L363.1 349.7C361.9 348.6 361.3 347.2 361.4 345.7Z" fill="white"/>
<path d="M446.3 370.1C442.7 370.1 439.5 369.3 437.1 368L362.3 325.1C359.8 323.7 358.4 321.7 358.4 319.4C358.4 316.8 360.3 314.1 363.7 312.1L435.2 270.5C438.5 268.6 442.9 267.5 447.3 267.5C450.9 267.5 454.1 268.3 456.5 269.6L531.3 312.5C533.8 313.9 535.2 315.9 535.2 318.2C535.2 320.8 533.3 323.5 529.9 325.5L458.4 367.1C455 369 450.6 370.1 446.3 370.1Z" fill="black"/>
<path d="M447.3 268.2C450.6 268.2 453.8 268.9 456.2 270.2L531 313.1C536.3 316.1 535.7 321.5 529.5 325.1L458 366.7C454.6 368.7 450.3 369.7 446.2 369.7C442.9 369.7 439.7 369 437.3 367.7L362.5 324.8C357.2 321.8 357.8 316.4 364 312.8L435.5 271.2C438.9 269.2 443.3 268.2 447.3 268.2ZM447.3 267.1C442.9 267.1 438.4 268.2 435 270.2L363.5 311.8C359.9 313.9 357.9 316.7 357.9 319.5C357.9 321.9 359.4 324.1 362.1 325.6L436.9 368.5C439.4 369.9 442.7 370.7 446.4 370.7C450.8 370.7 455.3 369.6 458.7 367.6L530.2 326C533.8 323.9 535.8 321.1 535.8 318.3C535.8 315.9 534.3 313.7 531.6 312.2L456.8 269.3C454.4 267.8 451 267.1 447.3 267.1Z" fill="black"/>
<path d="M531.001 313.1L456.201 270.2C453.401 268.6 449.601 268 445.701 268.2C448.501 268.4 451.201 269 453.201 270.2L528.001 313.1C533.301 316.1 532.701 321.5 526.501 325.1L455.001 366.7C452.101 368.4 448.401 369.4 444.801 369.6C449.301 369.9 454.201 368.9 458.001 366.7L529.501 325.1C535.701 321.5 536.401 316.1 531.001 313.1Z" fill="#2AA7FF"/>
<path d="M446.501 357.3C443.901 357.3 441.401 356.8 439.501 355.7L383.801 323.8C381.901 322.7 380.801 321.1 380.801 319.4C380.801 317.4 382.301 315.3 384.901 313.8L438.201 282.8C442.901 280.1 450.101 279.7 454.301 282.1L510.001 314C511.901 315.1 513.001 316.7 513.001 318.4C513.001 320.4 511.501 322.5 508.901 324L455.601 355C452.901 356.5 449.601 357.3 446.501 357.3ZM447.201 281.8C444.301 281.8 441.201 282.5 438.801 283.9L385.501 314.9C383.301 316.2 382.101 317.8 382.101 319.4C382.101 320.7 382.901 321.8 384.501 322.7L440.201 354.6C444.001 356.8 450.601 356.5 455.001 353.9L508.301 322.9C510.501 321.6 511.701 320 511.701 318.4C511.701 317.1 510.901 316 509.301 315.1L453.601 283.2C451.801 282.2 449.501 281.8 447.201 281.8Z" fill="white"/>
<path d="M440.7 367.5L365.9 324.6C360.6 321.6 361.2 316.2 367.4 312.6L438.9 271C441.8 269.3 445.4 268.3 449 268.1C444.4 267.8 439.4 268.8 435.6 271L364.1 312.6C358 316.2 357.3 321.5 362.6 324.6L437.4 367.5C440.2 369.1 444.1 369.7 448 369.5C445.2 369.3 442.7 368.7 440.7 367.5Z" fill="#2AA7FF"/>
<path d="M446.201 360.8C442.601 360.8 439.401 360 437.001 358.7L362.201 315.8C359.601 314.3 358.301 312.2 358.301 309.9V284.4L395.701 284.3L435.201 261.3C438.501 259.4 442.901 258.3 447.301 258.3C450.901 258.3 454.101 259.1 456.501 260.4L497.701 284L535.101 283.9L535.201 309.9H535.101C534.701 312.3 532.901 314.5 529.901 316.2L458.401 357.8C455.001 359.7 450.601 360.8 446.201 360.8Z" fill="#0D4A70"/>
<path d="M447.301 258.8C450.601 258.8 453.801 259.5 456.201 260.8L497.501 284.5L534.501 284.4L534.601 309.3C534.401 311.5 532.801 313.9 529.601 315.7L458.101 357.3C454.701 359.3 450.401 360.3 446.301 360.3C443.001 360.3 439.801 359.6 437.401 358.3L362.601 315.4C360.001 313.9 358.901 311.9 359.001 309.9L358.901 285L395.901 284.9L435.601 261.8C438.901 259.8 443.201 258.8 447.301 258.8ZM447.301 257.7C442.901 257.7 438.401 258.8 435.001 260.8L395.601 283.7L358.901 283.8H357.801V284.9L357.901 309.8V310.9C358.201 313 359.601 314.9 362.001 316.3L436.801 359.2C439.301 360.6 442.601 361.4 446.301 361.4C450.701 361.4 455.201 360.3 458.601 358.3L530.101 316.7C533.101 315 535.001 312.8 535.501 310.4H535.701V309.3L535.601 284.4V283.3H534.501L497.801 283.4L456.801 259.9C454.301 258.5 451.001 257.7 447.301 257.7Z" fill="black"/>
<path d="M361.3 311.5L361.2 286.6L398.2 286.5L437.9 263.4C444 259.8 453.3 259.4 458.6 262.5L499.9 286.2L534.6 286.1V284.4L497.6 284.5L456.3 260.8C451 257.8 441.7 258.2 435.6 261.7L395.9 284.8L358.9 284.9L359 309.8C358.9 311.9 360 313.9 362.6 315.3L363 315.5C361.8 314.3 361.2 312.9 361.3 311.5Z" fill="white"/>
<path d="M446.201 335.9C442.601 335.9 439.401 335.1 437.001 333.8L362.201 290.9C359.701 289.5 358.301 287.5 358.301 285.2C358.301 282.6 360.201 279.9 363.601 277.9L435.101 236.3C438.401 234.4 442.801 233.3 447.201 233.3C450.801 233.3 454.001 234.1 456.401 235.4L531.201 278.3C533.701 279.7 535.101 281.7 535.101 284C535.101 286.6 533.201 289.3 529.801 291.3L458.301 332.9C454.901 334.8 450.501 335.9 446.201 335.9Z" fill="black"/>
<path d="M447.201 233.9C450.501 233.9 453.701 234.6 456.101 235.9L530.901 278.8C536.201 281.8 535.601 287.2 529.401 290.8L457.901 332.4C454.501 334.4 450.201 335.4 446.101 335.4C442.801 335.4 439.601 334.7 437.201 333.4L362.401 290.5C357.101 287.5 357.701 282.1 363.901 278.5L435.401 236.9C438.801 234.9 443.101 233.9 447.201 233.9ZM447.201 232.8C442.801 232.8 438.301 233.9 434.901 235.9L363.401 277.5C359.801 279.6 357.801 282.4 357.801 285.2C357.801 287.6 359.301 289.8 362.001 291.3L436.801 334.2C439.301 335.6 442.601 336.4 446.301 336.4C450.701 336.4 455.201 335.3 458.601 333.3L530.101 291.7C533.701 289.6 535.701 286.8 535.701 284C535.701 281.6 534.201 279.4 531.501 277.9L456.701 235C454.201 233.6 450.901 232.8 447.201 232.8Z" fill="black"/>
<path d="M530.901 278.8L456.101 235.9C453.301 234.3 449.501 233.7 445.601 233.9C448.401 234.1 451.101 234.7 453.101 235.9L527.901 278.8C533.201 281.8 532.601 287.2 526.401 290.8L454.901 332.4C452.001 334.1 448.301 335.1 444.701 335.3C449.201 335.6 454.101 334.6 457.901 332.4L529.401 290.8C535.601 287.2 536.301 281.9 530.901 278.8Z" fill="#2AA7FF"/>
<path d="M446.401 323C443.801 323 441.301 322.5 439.401 321.4L383.701 289.5C381.801 288.4 380.701 286.8 380.701 285.1C380.701 283.1 382.201 281 384.801 279.5L438.101 248.5C442.801 245.8 450.001 245.4 454.201 247.8L509.901 279.7C511.801 280.8 512.901 282.4 512.901 284.1C512.901 286.1 511.401 288.2 508.801 289.7L455.501 320.7C452.801 322.2 449.501 323 446.401 323ZM440.001 320.3C443.801 322.5 450.401 322.2 454.801 319.6L508.101 288.6C510.301 287.3 511.501 285.7 511.501 284.1C511.501 282.8 510.701 281.7 509.101 280.8L453.401 248.9C449.601 246.7 443.001 247 438.601 249.6L385.301 280.6C383.101 281.9 381.901 283.5 381.901 285.1C381.901 286.4 382.701 287.5 384.301 288.4L440.001 320.3Z" fill="white"/>
<path d="M440.6 333.3L365.8 290.4C360.5 287.4 361.1 282 367.3 278.4L438.8 236.8C441.7 235.1 445.3 234.1 448.9 233.9C444.3 233.6 439.3 234.6 435.5 236.8L364 278.4C357.9 282 357.2 287.3 362.5 290.4L437.3 333.3C440.1 334.9 444 335.5 447.9 335.3C445.1 335.1 442.6 334.5 440.6 333.3Z" fill="#2AA7FF"/>
<path d="M446.1 326.5C442.5 326.5 439.3 325.7 436.9 324.4L362.1 281.5C359.5 280 358.2 277.9 358.2 275.6L358.1 250.1L395.5 250L435 227C438.3 225.1 442.7 224 447.1 224C450.7 224 453.9 224.8 456.3 226.1L497.5 249.7L534.9 249.6L535 275.6H534.9C534.5 278 532.7 280.2 529.7 281.9L458.2 323.5C454.9 325.4 450.5 326.5 446.1 326.5Z" fill="#0D4A70"/>
<path d="M447.201 224.6C450.501 224.6 453.701 225.3 456.101 226.6L497.401 250.3L534.401 250.2L534.501 275.1C534.301 277.3 532.701 279.7 529.501 281.5L458.001 323.1C454.601 325.1 450.301 326.1 446.201 326.1C442.901 326.1 439.701 325.4 437.301 324.1L362.501 281.2C359.901 279.7 358.801 277.7 358.901 275.7L358.801 250.8L395.801 250.7L435.501 227.6C438.801 225.6 443.101 224.6 447.201 224.6ZM447.201 223.5C442.801 223.5 438.301 224.6 434.901 226.6L395.501 249.5L358.801 249.6H357.701V250.7L357.801 275.6V276.7C358.101 278.8 359.501 280.7 361.901 282.1L436.701 325C439.201 326.4 442.501 327.2 446.201 327.2C450.601 327.2 455.101 326.1 458.501 324.1L530.001 282.5C533.001 280.8 534.901 278.6 535.401 276.2H535.601V275.1L535.501 250.2V249.1H534.401L497.701 249.2L456.701 225.7C454.201 224.2 450.901 223.5 447.201 223.5Z" fill="black"/>
<path d="M361.201 277.2L361.101 252.3L398.101 252.2L437.801 229.1C443.901 225.5 453.201 225.1 458.501 228.2L499.801 251.9L534.501 251.8V250.1L497.501 250.2L456.201 226.5C450.901 223.5 441.601 223.9 435.501 227.4L395.801 250.5L358.801 250.6L358.901 275.5C358.801 277.6 359.901 279.6 362.501 281L362.901 281.2C361.701 280.1 361.101 278.7 361.201 277.2Z" fill="white"/>
<path d="M446.101 301.7C442.501 301.7 439.301 300.9 436.901 299.6L362.101 256.7C359.601 255.3 358.201 253.3 358.201 251C358.201 248.4 360.101 245.7 363.501 243.7L435.001 202.1C438.301 200.2 442.701 199.1 447.101 199.1C450.701 199.1 453.901 199.9 456.301 201.2L531.101 244.1C533.601 245.5 535.001 247.5 535.001 249.8C535.001 252.4 533.101 255.1 529.701 257.1L458.201 298.7C454.801 300.6 450.401 301.7 446.101 301.7Z" fill="black"/>
<path d="M447.101 199.7C450.401 199.7 453.601 200.4 456.001 201.7L530.801 244.6C536.101 247.6 535.501 253 529.301 256.6L457.801 298.2C454.401 300.2 450.101 301.2 446.001 301.2C442.701 301.2 439.501 300.5 437.101 299.2L362.301 256.3C357.001 253.3 357.601 247.9 363.801 244.3L435.301 202.7C438.701 200.7 443.001 199.7 447.101 199.7ZM447.101 198.6C442.701 198.6 438.201 199.7 434.801 201.7L363.301 243.3C359.701 245.4 357.701 248.2 357.701 251C357.701 253.4 359.201 255.6 361.901 257.1L436.701 300C439.201 301.4 442.501 302.2 446.201 302.2C450.601 302.2 455.101 301.1 458.501 299.1L530.001 257.5C533.601 255.4 535.601 252.6 535.601 249.8C535.601 247.4 534.101 245.2 531.401 243.7L456.601 200.8C454.101 199.4 450.801 198.6 447.101 198.6Z" fill="black"/>
<path d="M530.8 244.6L456 201.7C453.2 200.1 449.4 199.5 445.5 199.7C448.3 199.9 451 200.5 453 201.7L527.8 244.6C533.1 247.6 532.5 253 526.3 256.6L454.8 298.2C451.9 299.9 448.2 300.9 444.6 301.1C449.1 301.4 454 300.4 457.8 298.2L529.3 256.6C535.5 253 536.1 247.7 530.8 244.6Z" fill="#2AA7FF"/>
<path d="M446.3 288.8C443.7 288.8 441.2 288.3 439.3 287.2L383.6 255.3C381.7 254.2 380.6 252.6 380.6 250.9C380.6 248.9 382.1 246.8 384.7 245.3L438 214.3C442.7 211.6 449.9 211.2 454.1 213.6L509.8 245.5C511.7 246.6 512.8 248.2 512.8 249.9C512.8 251.9 511.3 254 508.7 255.5L455.4 286.5C452.7 288 449.4 288.8 446.3 288.8ZM439.9 286.1C443.7 288.3 450.3 288 454.7 285.4L508 254.4C510.2 253.1 511.4 251.5 511.4 249.9C511.4 248.6 510.6 247.5 509 246.6L453.3 214.7C449.5 212.5 442.9 212.8 438.5 215.4L385.2 246.4C383 247.7 381.8 249.3 381.8 250.9C381.8 252.2 382.6 253.3 384.2 254.2L439.9 286.1Z" fill="white"/>
<path d="M440.501 299.1L365.701 256.2C360.401 253.2 361.001 247.8 367.201 244.2L438.701 202.6C441.601 200.9 445.201 199.9 448.801 199.7C444.201 199.4 439.201 200.4 435.401 202.6L363.901 244.2C357.801 247.8 357.101 253.1 362.401 256.2L437.201 299.1C440.001 300.7 443.901 301.3 447.801 301.1C445.001 300.9 442.501 300.2 440.501 299.1Z" fill="#2AA7FF"/>
<path d="M446 292.3C442.4 292.3 439.2 291.5 436.8 290.2L362 247.3C359.4 245.8 358.1 243.7 358.1 241.4L358 215.9L395.4 215.8L434.9 192.8C438.2 190.9 442.6 189.8 447 189.8C450.6 189.8 453.8 190.6 456.2 191.9L497.4 215.5L534.8 215.4L534.9 241.4H534.8C534.4 243.8 532.6 246 529.6 247.7L458.1 289.3C454.8 291.2 450.4 292.3 446 292.3Z" fill="#B0E1FF"/>
<path d="M447.1 190.3C450.4 190.3 453.6 191 456 192.3L497.3 216L534.3 215.9L534.4 240.8C534.2 243 532.6 245.4 529.4 247.2L457.9 288.8C454.5 290.8 450.2 291.8 446.1 291.8C442.8 291.8 439.6 291.1 437.2 289.8L362.4 246.9C359.8 245.4 358.7 243.4 358.8 241.4L358.7 216.5L395.7 216.4L435.4 193.3C438.7 191.3 443 190.3 447.1 190.3ZM447.1 189.2C442.7 189.2 438.2 190.3 434.8 192.3L395.4 215.2L358.7 215.3H357.6V216.4L357.7 241.3V242.4C358 244.5 359.4 246.4 361.8 247.8L436.6 290.7C439.1 292.1 442.4 292.9 446.1 292.9C450.5 292.9 455 291.8 458.4 289.8L529.9 248.2C532.9 246.5 534.8 244.3 535.3 241.9H535.5V240.8L535.4 215.9V214.8H534.3L497.6 214.9L456.6 191.4C454.1 190 450.8 189.2 447.1 189.2Z" fill="black"/>
<path d="M361.101 243L361.001 218.1L398.001 218L437.701 194.9C443.801 191.3 453.101 190.9 458.401 194L499.701 217.7L534.401 217.6V215.9L497.401 216L456.101 192.3C450.801 189.3 441.501 189.7 435.401 193.2L395.701 216.3L358.701 216.4L358.801 241.3C358.701 243.4 359.801 245.4 362.401 246.8L362.801 247C361.601 245.9 361.001 244.5 361.101 243Z" fill="white"/>
<path d="M446 267.5C442.4 267.5 439.2 266.7 436.8 265.4L362 222.5C359.5 221.1 358.1 219.1 358.1 216.8C358.1 214.2 360 211.5 363.4 209.5L434.9 167.9C438.2 166 442.6 164.9 447 164.9C450.6 164.9 453.8 165.7 456.2 167L531 209.9C533.5 211.3 534.9 213.3 534.9 215.6C534.9 218.2 533 220.9 529.6 222.9L458.1 264.5C454.7 266.3 450.3 267.5 446 267.5Z" fill="#2AA7FF"/>
<path d="M447 165.5C450.3 165.5 453.5 166.2 455.9 167.5L530.7 210.4C536 213.4 535.4 218.8 529.2 222.4L457.7 264C454.3 266 450 267 445.9 267C442.6 267 439.4 266.3 437 265L362.2 222.1C356.9 219.1 357.5 213.7 363.7 210.1L435.2 168.5C438.6 166.5 442.9 165.5 447 165.5ZM447 164.4C442.6 164.4 438.1 165.5 434.7 167.5L363.2 209.1C359.6 211.2 357.6 214 357.6 216.8C357.6 219.2 359.1 221.4 361.8 222.9L436.6 265.8C439.1 267.2 442.4 268 446.1 268C450.5 268 455 266.9 458.4 264.9L529.9 223.3C533.5 221.2 535.5 218.4 535.5 215.6C535.5 213.2 534 211 531.3 209.5L456.5 166.6C454 165.1 450.7 164.4 447 164.4Z" fill="black"/>
<path d="M459.9 278.6L522.9 241.9C523.5 241.6 523.9 240.7 523.9 239.9V236.9C523.9 236.1 523.4 235.8 522.9 236.1L459.9 272.8C459.3 273.1 458.9 274 458.9 274.8V277.8C458.9 278.6 459.3 279 459.9 278.6Z" fill="#2AA7FF" stroke="black" stroke-width="1.1" stroke-miterlimit="10"/>
<path d="M521.6 241.1C522.2 240.8 522.6 239.9 522.6 239.1V236.3L522.9 236.1C523.5 235.8 523.9 236.1 523.9 236.9V239.9C523.9 240.7 523.4 241.6 522.9 241.9L459.9 278.6C459.3 278.9 458.9 278.6 458.9 277.8V277.6L521.6 241.1Z" fill="#2AA7FF"/>
<path d="M326 464.2C322.4 464.2 319.2 463.4 316.8 462.1L242 419.2C239.4 417.7 238.1 415.6 238.1 413.3L238 387.8L275.4 387.7L314.9 364.7C318.2 362.8 322.6 361.7 327 361.7C330.6 361.7 333.8 362.5 336.2 363.8L377.4 387.4L414.8 387.3L414.9 413.3H414.8C414.4 415.7 412.6 417.9 409.6 419.6L338.1 461.2C334.8 463.1 330.4 464.2 326 464.2Z" fill="#393939"/>
<path d="M327.1 362.2C330.4 362.2 333.6 362.9 336 364.2L377.3 387.9L414.3 387.8L414.4 412.7C414.2 414.9 412.6 417.3 409.4 419.1L337.9 460.7C334.5 462.7 330.2 463.7 326.1 463.7C322.8 463.7 319.6 463 317.2 461.7L242.4 418.8C239.8 417.3 238.7 415.3 238.8 413.3L238.7 388.4L275.7 388.3L315.4 365.2C318.7 363.2 323 362.2 327.1 362.2ZM327.1 361.1C322.7 361.1 318.2 362.2 314.8 364.2L275.4 387.1L238.7 387.2H237.6V388.3L237.7 413.2V414.3C238 416.4 239.4 418.3 241.8 419.7L316.6 462.6C319.1 464 322.4 464.8 326.1 464.8C330.5 464.8 335 463.7 338.4 461.7L409.9 420.1C412.9 418.4 414.8 416.2 415.3 413.8H415.5V412.7L415.4 387.8V386.7H414.3L377.6 386.8L336.6 363.3C334.1 361.9 330.7 361.1 327.1 361.1Z" fill="black"/>
<path d="M241.101 414.9L241.001 390L278.001 389.9L317.701 366.8C323.801 363.2 333.101 362.8 338.401 365.9L379.701 389.6L414.401 389.5V387.8L377.401 387.9L336.101 364.2C330.801 361.2 321.501 361.6 315.401 365.1L275.701 388.2L238.701 388.3L238.801 413.2C238.701 415.3 239.801 417.3 242.401 418.7L242.801 418.9C241.501 417.7 241.001 416.3 241.101 414.9Z" fill="white"/>
<path d="M325.9 439.3C322.3 439.3 319.1 438.5 316.7 437.2L241.9 394.3C239.4 392.9 238 390.9 238 388.6C238 386 239.9 383.3 243.3 381.3L314.8 339.7C318.1 337.8 322.5 336.7 326.9 336.7C330.5 336.7 333.7 337.5 336.1 338.8L410.9 381.7C413.4 383.1 414.8 385.1 414.8 387.4C414.8 390 412.9 392.7 409.5 394.7L338 436.3C334.7 438.2 330.3 439.3 325.9 439.3Z" fill="black"/>
<path d="M327 337.3C330.3 337.3 333.5 338 335.9 339.3L410.7 382.2C416 385.2 415.4 390.6 409.2 394.2L337.7 435.8C334.3 437.8 330 438.8 325.9 438.8C322.6 438.8 319.4 438.1 317 436.8L242.2 393.9C236.9 390.9 237.5 385.5 243.7 381.9L315.2 340.3C318.6 338.3 322.9 337.3 327 337.3ZM327 336.2C322.6 336.2 318.1 337.3 314.7 339.3L243.2 380.9C239.6 383 237.6 385.8 237.6 388.6C237.6 391 239.1 393.2 241.8 394.7L316.6 437.6C319.1 439 322.4 439.8 326.1 439.8C330.5 439.8 335 438.7 338.4 436.7L409.9 395.1C413.5 393 415.5 390.2 415.5 387.4C415.5 385 414 382.8 411.3 381.3L336.5 338.4C334 337 330.7 336.2 327 336.2Z" fill="black"/>
<path d="M410.7 382.2L335.9 339.3C333.1 337.7 329.3 337.1 325.4 337.3C328.2 337.5 330.9 338.1 332.9 339.3L407.7 382.2C413 385.2 412.4 390.6 406.2 394.2L334.7 435.8C331.8 437.5 328.1 438.5 324.5 438.7C329 439 333.9 438 337.7 435.8L409.2 394.2C415.4 390.6 416 385.3 410.7 382.2Z" fill="#2AA7FF"/>
<path d="M326.1 426.4C323.5 426.4 321 425.9 319.1 424.8L263.4 392.9C261.5 391.8 260.4 390.2 260.4 388.5C260.4 386.5 261.9 384.4 264.5 382.9L317.8 351.9C322.5 349.2 329.7 348.8 333.9 351.2L389.6 383.1C391.5 384.2 392.6 385.8 392.6 387.5C392.6 389.5 391.1 391.6 388.5 393.1L335.2 424.1C332.6 425.6 329.3 426.4 326.1 426.4ZM319.8 423.7C323.6 425.9 330.2 425.6 334.6 423L387.9 392C390.1 390.7 391.3 389.1 391.3 387.5C391.3 386.2 390.5 385.1 388.9 384.2L333.2 352.3C329.4 350.1 322.8 350.4 318.4 353L265.1 384C262.9 385.3 261.7 386.9 261.7 388.5C261.7 389.8 262.5 390.9 264.1 391.8L319.8 423.7Z" fill="white"/>
<path d="M320.4 436.7L245.599 393.8C240.299 390.8 240.899 385.4 246.999 381.8L318.499 340.2C321.399 338.5 324.999 337.5 328.599 337.3C323.999 337 319 338 315.2 340.2L243.7 381.8C237.6 385.4 236.9 390.7 242.2 393.8L316.999 436.7C319.799 438.3 323.699 438.9 327.599 438.7C324.899 438.5 322.4 437.9 320.4 436.7Z" fill="#B0E1FF"/>
<path d="M325.9 429.9C322.3 429.9 319.1 429.1 316.7 427.8L241.9 384.9C239.3 383.4 238 381.3 238 379L237.9 353.5L275.3 353.4L314.8 330.4C318.1 328.5 322.5 327.4 326.9 327.4C330.5 327.4 333.7 328.2 336.1 329.5L377.3 353.1L414.7 353L414.8 379H414.7C414.3 381.4 412.5 383.6 409.5 385.3L338 426.9C334.7 428.8 330.3 429.9 325.9 429.9Z" fill="#393939"/>
<path d="M327 328C330.3 328 333.5 328.7 335.9 330L377.2 353.7L414.2 353.6L414.3 378.5C414.1 380.7 412.5 383.1 409.3 384.9L337.8 426.5C334.4 428.5 330.1 429.5 326 429.5C322.7 429.5 319.5 428.8 317.1 427.5L242.3 384.6C239.7 383.1 238.6 381.1 238.7 379.1L238.6 354.2L275.6 354.1L315.3 331C318.6 329 322.9 328 327 328ZM327 326.9C322.6 326.9 318.1 328 314.7 330L275.3 352.9L238.6 353H237.5V354.1L237.6 379V380.1C237.9 382.2 239.3 384.1 241.7 385.5L316.5 428.4C319 429.8 322.3 430.6 326 430.6C330.4 430.6 334.9 429.5 338.3 427.5L409.8 385.9C412.8 384.2 414.7 382 415.2 379.6H415.4V378.5L415.3 353.6V352.5H414.2L377.5 352.6L336.5 329.1C334 327.6 330.6 326.9 327 326.9Z" fill="black"/>
<path d="M241 380.6L240.9 355.7L277.9 355.6L317.6 332.5C323.7 328.9 333 328.5 338.3 331.6L379.6 355.3L414.3 355.2V353.5L377.3 353.6L336 329.9C330.7 326.9 321.4 327.3 315.3 330.8L275.6 353.9L238.6 354L238.7 378.9C238.6 381 239.7 383 242.3 384.4L242.7 384.6C241.4 383.5 240.9 382.1 241 380.6Z" fill="white"/>
<path d="M325.8 405.1C322.2 405.1 319 404.3 316.6 403L241.8 360.1C239.3 358.7 237.9 356.7 237.9 354.4C237.9 351.8 239.8 349.1 243.2 347.1L314.7 305.5C318 303.6 322.4 302.5 326.8 302.5C330.4 302.5 333.6 303.3 336 304.6L410.8 347.5C413.3 348.9 414.7 350.9 414.7 353.2C414.7 355.8 412.8 358.5 409.4 360.5L337.9 402.1C334.6 404 330.2 405.1 325.8 405.1Z" fill="black"/>
<path d="M326.9 303.1C330.2 303.1 333.4 303.8 335.8 305.1L410.6 348C415.9 351 415.3 356.4 409.1 360L337.6 401.6C334.2 403.6 329.9 404.6 325.8 404.6C322.5 404.6 319.3 403.9 316.9 402.6L242.1 359.7C236.8 356.7 237.4 351.3 243.6 347.7L315.1 306.1C318.5 304.1 322.8 303.1 326.9 303.1ZM326.9 302C322.5 302 318 303.1 314.6 305.1L243.1 346.7C239.5 348.8 237.5 351.6 237.5 354.4C237.5 356.8 239 359 241.7 360.5L316.5 403.4C319 404.8 322.3 405.6 326 405.6C330.4 405.6 334.9 404.5 338.3 402.5L409.8 360.9C413.4 358.8 415.4 356 415.4 353.2C415.4 350.8 413.9 348.6 411.2 347.1L336.4 304.2C333.9 302.8 330.6 302 326.9 302Z" fill="black"/>
<path d="M410.6 348L335.8 305.1C333 303.5 329.2 302.9 325.3 303.1C328.1 303.3 330.8 303.9 332.8 305.1L407.6 348C412.9 351 412.3 356.4 406.1 360L334.6 401.6C331.7 403.3 328 404.3 324.4 404.5C328.9 404.8 333.8 403.8 337.6 401.6L409.1 360C415.3 356.4 415.9 351.1 410.6 348Z" fill="#2AA7FF"/>
<path d="M326.001 392.2C323.401 392.2 320.901 391.7 319.001 390.6L263.301 358.7C261.401 357.6 260.301 356 260.301 354.3C260.301 352.3 261.801 350.2 264.401 348.7L317.701 317.7C322.401 315 329.601 314.6 333.801 317L389.501 348.9C391.401 350 392.501 351.6 392.501 353.3C392.501 355.3 391.001 357.4 388.401 358.9L335.101 389.9C332.501 391.4 329.201 392.2 326.001 392.2ZM326.701 316.7C323.801 316.7 320.701 317.4 318.301 318.8L265.001 349.8C262.801 351.1 261.601 352.7 261.601 354.3C261.601 355.6 262.401 356.7 264.001 357.6L319.701 389.5C323.501 391.7 330.101 391.4 334.501 388.8L387.801 357.8C390.001 356.5 391.201 354.9 391.201 353.3C391.201 352 390.401 350.9 388.801 350L333.101 318.1C331.401 317.2 329.101 316.7 326.701 316.7Z" fill="white"/>
<path d="M320.3 402.5L245.499 359.6C240.199 356.6 240.799 351.2 246.999 347.6L318.499 306C321.399 304.3 324.999 303.3 328.599 303.1C323.999 302.8 319 303.8 315.2 306L243.7 347.6C237.6 351.2 236.9 356.5 242.2 359.6L316.999 402.5C319.799 404.1 323.699 404.7 327.599 404.5C324.799 404.3 322.3 403.6 320.3 402.5Z" fill="#B0E1FF"/>
<path d="M325.801 395.7C322.201 395.7 319.001 394.9 316.601 393.6L241.801 350.7C239.201 349.2 237.901 347.1 237.901 344.8L237.801 319.3L275.201 319.2L314.701 296.2C318.001 294.3 322.401 293.2 326.801 293.2C330.401 293.2 333.601 294 336.001 295.3L377.201 318.9L414.601 318.8L414.701 344.7H414.601C414.201 347.1 412.401 349.3 409.401 351.1L337.901 392.7C334.501 394.6 330.201 395.7 325.801 395.7Z" fill="#393939"/>
<path d="M326.9 293.7C330.2 293.7 333.4 294.4 335.8 295.7L377.1 319.4L414.1 319.3L414.2 344.2C414 346.4 412.4 348.8 409.2 350.6L337.7 392.2C334.3 394.2 330 395.2 325.9 395.2C322.6 395.2 319.4 394.5 317 393.2L242.2 350.3C239.6 348.8 238.5 346.8 238.6 344.8L238.5 319.9L275.5 319.8L315.2 296.7C318.5 294.7 322.8 293.7 326.9 293.7ZM326.9 292.6C322.5 292.6 318 293.7 314.6 295.7L275.2 318.6L238.5 318.7H237.4V319.8L237.5 344.7V345.8C237.8 347.9 239.2 349.8 241.6 351.2L316.4 394.1C318.9 395.5 322.2 396.3 325.9 396.3C330.3 396.3 334.8 395.2 338.2 393.2L409.7 351.6C412.7 349.9 414.6 347.7 415.1 345.3H415.3V344.2L415.2 319.3V318.2H414.1L377.4 318.3L336.4 294.8C333.9 293.4 330.5 292.6 326.9 292.6Z" fill="black"/>
<path d="M240.9 346.4L240.8 321.5L277.8 321.4L317.5 298.3C323.6 294.7 332.9 294.3 338.2 297.4L379.5 321.1L414.2 321V319.3L377.2 319.4L335.9 295.7C330.6 292.7 321.3 293.1 315.2 296.6L275.5 319.7L238.5 319.8L238.6 344.7C238.5 346.8 239.6 348.8 242.2 350.2L242.6 350.4C241.3 349.3 240.8 347.9 240.9 346.4Z" fill="white"/>
<path d="M325.701 370.8C322.101 370.8 318.901 370 316.501 368.7L241.701 325.8C239.201 324.4 237.801 322.4 237.801 320.1C237.801 317.5 239.701 314.8 243.101 312.8L314.601 271.2C317.901 269.3 322.301 268.2 326.701 268.2C330.301 268.2 333.501 269 335.901 270.3L410.701 313.2C413.201 314.6 414.601 316.6 414.601 318.9C414.601 321.5 412.701 324.2 409.301 326.2L337.801 367.8C334.501 369.7 330.101 370.8 325.701 370.8Z" fill="black"/>
<path d="M326.8 268.9C330.1 268.9 333.3 269.6 335.7 270.9L410.5 313.8C415.8 316.8 415.2 322.2 409 325.8L337.5 367.4C334.1 369.4 329.8 370.4 325.7 370.4C322.4 370.4 319.2 369.7 316.8 368.4L242 325.5C236.7 322.5 237.3 317.1 243.5 313.5L315 271.9C318.4 269.9 322.7 268.9 326.8 268.9ZM326.8 267.8C322.4 267.8 317.9 268.9 314.5 270.9L243 312.5C239.4 314.6 237.4 317.4 237.4 320.2C237.4 322.6 238.9 324.8 241.6 326.3L316.4 369.2C318.9 370.6 322.2 371.4 325.9 371.4C330.3 371.4 334.8 370.3 338.2 368.3L409.7 326.7C413.3 324.6 415.3 321.8 415.3 319C415.3 316.6 413.8 314.4 411.1 312.9L336.3 270C333.8 268.5 330.5 267.8 326.8 267.8Z" fill="black"/>
<path d="M410.501 313.8L335.701 270.9C332.901 269.3 329.101 268.7 325.201 268.9C328.001 269.1 330.701 269.7 332.701 270.9L407.501 313.8C412.801 316.8 412.201 322.2 406.001 325.8L334.501 367.4C331.601 369.1 327.901 370.1 324.301 370.3C328.801 370.6 333.701 369.6 337.501 367.4L409.001 325.8C415.201 322.2 415.801 316.8 410.501 313.8Z" fill="#2AA7FF"/>
<path d="M325.901 358C323.301 358 320.801 357.5 318.901 356.4L263.201 324.5C261.301 323.4 260.201 321.8 260.201 320.1C260.201 318.1 261.701 316 264.301 314.5L317.601 283.5C322.301 280.8 329.501 280.4 333.701 282.8L389.401 314.7C391.301 315.8 392.401 317.4 392.401 319.1C392.401 321.1 390.901 323.2 388.301 324.7L335.001 355.7C332.401 357.2 329.101 358 325.901 358ZM326.601 282.5C323.701 282.5 320.601 283.2 318.201 284.6L264.901 315.6C262.701 316.9 261.501 318.5 261.501 320.1C261.501 321.4 262.301 322.5 263.901 323.4L319.601 355.3C323.401 357.5 330.001 357.2 334.401 354.6L387.701 323.6C389.901 322.3 391.101 320.7 391.101 319.1C391.101 317.8 390.301 316.7 388.701 315.8L333.001 283.9C331.301 282.9 329.001 282.5 326.601 282.5Z" fill="white"/>
<path d="M320.2 368.2L245.4 325.3C240.1 322.3 240.7 316.9 246.8 313.3L318.3 271.7C321.2 270 324.8 269 328.4 268.8C323.8 268.5 318.8 269.5 315 271.7L243.5 313.3C237.4 316.9 236.7 322.2 242 325.3L316.8 368.2C319.6 369.8 323.5 370.4 327.4 370.2C324.7 370 322.2 369.4 320.2 368.2Z" fill="#B0E1FF"/>
<path d="M325.701 361.5C322.101 361.5 318.901 360.7 316.501 359.4L241.701 316.5C239.101 315 237.801 312.9 237.801 310.6L237.701 285.1L275.101 285L314.601 262C317.901 260.1 322.301 259 326.701 259C330.301 259 333.501 259.8 335.901 261.1L377.101 284.7L414.501 284.6L414.601 310.6H414.501C414.101 313 412.301 315.2 409.301 316.9L337.801 358.5C334.401 360.4 330.001 361.5 325.701 361.5Z" fill="#B2BAC1"/>
<path d="M326.801 259.5C330.101 259.5 333.301 260.2 335.701 261.5L377.001 285.2L414.001 285.1L414.101 310C413.901 312.2 412.301 314.6 409.101 316.4L337.601 358C334.201 360 329.901 361 325.801 361C322.501 361 319.301 360.3 316.901 359L242.101 316.1C239.501 314.6 238.401 312.6 238.501 310.6L238.401 285.7L275.401 285.6L315.101 262.5C318.401 260.5 322.701 259.5 326.801 259.5ZM326.801 258.4C322.401 258.4 317.901 259.5 314.501 261.5L275.101 284.4L238.401 284.5H237.301V285.6L237.401 310.5V311.6C237.701 313.7 239.101 315.6 241.501 317L316.301 359.9C318.801 361.3 322.101 362.1 325.801 362.1C330.201 362.1 334.701 361 338.101 359L409.601 317.4C412.601 315.7 414.501 313.5 415.001 311.1H415.201V310L415.101 285.1V284H414.001L377.301 284.1L336.301 260.6C333.801 259.2 330.401 258.4 326.801 258.4Z" fill="black"/>
<path d="M240.8 312.2L240.7 287.3L277.7 287.2L317.4 264.1C323.5 260.5 332.8 260.1 338.1 263.2L379.4 286.9L414.1 286.8V285.1L377.1 285.2L335.8 261.5C330.5 258.5 321.2 258.9 315.1 262.4L275.4 285.5L238.4 285.6L238.5 310.5C238.4 312.6 239.5 314.6 242.1 316L242.5 316.2C241.2 315 240.7 313.6 240.8 312.2Z" fill="white"/>
<path d="M325.601 336.6C322.001 336.6 318.801 335.8 316.401 334.5L241.601 291.6C239.101 290.2 237.701 288.2 237.701 285.9C237.701 283.3 239.601 280.6 243.001 278.6L314.501 237C317.801 235.1 322.201 234 326.601 234C330.201 234 333.401 234.8 335.801 236.1L410.601 279C413.101 280.4 414.501 282.4 414.501 284.7C414.501 287.3 412.601 290 409.201 292L337.701 333.6C334.401 335.5 330.001 336.6 325.601 336.6Z" fill="#2AA7FF"/>
<path d="M326.701 234.6C330.001 234.6 333.201 235.3 335.601 236.6L410.401 279.5C415.701 282.5 415.101 287.9 408.901 291.5L337.401 333.1C334.001 335.1 329.701 336.1 325.601 336.1C322.301 336.1 319.101 335.4 316.701 334.1L241.901 291.2C236.601 288.2 237.201 282.8 243.401 279.2L314.901 237.6C318.301 235.6 322.601 234.6 326.701 234.6ZM326.701 233.5C322.301 233.5 317.801 234.6 314.401 236.6L242.901 278.2C239.301 280.3 237.301 283.1 237.301 285.9C237.301 288.3 238.801 290.5 241.501 292L316.301 334.9C318.801 336.3 322.101 337.1 325.801 337.1C330.201 337.1 334.701 336 338.101 334L409.601 292.4C413.201 290.3 415.201 287.5 415.201 284.7C415.201 282.3 413.701 280.1 411.001 278.6L336.201 235.7C333.701 234.3 330.401 233.5 326.701 233.5Z" fill="black"/>
<path d="M339.601 347.8L402.601 311.1C403.201 310.8 403.601 309.9 403.601 309.1V306.1C403.601 305.3 403.101 305 402.601 305.3L339.601 342C339.001 342.3 338.601 343.2 338.601 344V347C338.501 347.8 339.001 348.1 339.601 347.8Z" fill="#2AA7FF" stroke="black" stroke-width="1.1" stroke-miterlimit="10"/>
<path d="M401.2 310.3C401.8 310 402.2 309.1 402.2 308.3V305.5L402.5 305.3C403.1 305 403.5 305.3 403.5 306.1V309.1C403.5 309.9 403 310.8 402.5 311.1L339.5 347.8C338.9 348.1 338.5 347.8 338.5 347V346.8L401.2 310.3Z" fill="black"/>
<path d="M313.601 347.9L250.301 311.6C249.701 311.3 249.301 310.4 249.201 309.6V306.6C249.201 305.8 249.701 305.5 250.201 305.8L313.501 342.1C314.101 342.4 314.501 343.3 314.601 344.1V347.1C314.601 347.8 314.201 348.2 313.601 347.9Z" fill="#2AA7FF" stroke="black" stroke-width="1.1" stroke-miterlimit="10"/>
<path d="M251.701 310.7C251.101 310.4 250.701 309.5 250.601 308.7V305.9L250.301 305.7C249.701 305.4 249.301 305.7 249.301 306.5V309.5C249.301 310.3 249.801 311.2 250.401 311.5L313.701 347.8C314.301 348.1 314.701 347.8 314.701 347V346.8L251.701 310.7Z" fill="black"/>
<path d="M446 267.5C442.4 267.5 439.2 266.7 436.8 265.4L362 222.5C359.5 221.1 358.1 219.1 358.1 216.8C358.1 214.2 360 211.5 363.4 209.5L434.9 167.9C438.2 166 442.6 164.9 447 164.9C450.6 164.9 453.8 165.7 456.2 167L531 209.9C533.5 211.3 534.9 213.3 534.9 215.6C534.9 218.2 533 220.9 529.6 222.9L458.1 264.5C454.7 266.3 450.3 267.5 446 267.5Z" fill="#2AA7FF"/>
<path d="M447 165.5C450.3 165.5 453.5 166.2 455.9 167.5L530.7 210.4C536 213.4 535.4 218.8 529.2 222.4L457.7 264C454.3 266 450 267 445.9 267C442.6 267 439.4 266.3 437 265L362.2 222.1C356.9 219.1 357.5 213.7 363.7 210.1L435.2 168.5C438.6 166.5 442.9 165.5 447 165.5ZM447 164.4C442.6 164.4 438.1 165.5 434.7 167.5L363.2 209.1C359.6 211.2 357.6 214 357.6 216.8C357.6 219.2 359.1 221.4 361.8 222.9L436.6 265.8C439.1 267.2 442.4 268 446.1 268C450.5 268 455 266.9 458.4 264.9L529.9 223.3C533.5 221.2 535.5 218.4 535.5 215.6C535.5 213.2 534 211 531.3 209.5L456.5 166.6C454 165.1 450.7 164.4 447 164.4Z" fill="black"/>
<path d="M325.601 336.6C322.001 336.6 318.801 335.8 316.401 334.5L241.601 291.6C239.101 290.2 237.701 288.2 237.701 285.9C237.701 283.3 239.601 280.6 243.001 278.6L314.501 237C317.801 235.1 322.201 234 326.601 234C330.201 234 333.401 234.8 335.801 236.1L410.601 279C413.101 280.4 414.501 282.4 414.501 284.7C414.501 287.3 412.601 290 409.201 292L337.701 333.6C334.401 335.5 330.001 336.6 325.601 336.6Z" fill="#2AA7FF"/>
<path d="M326.701 234.6C330.001 234.6 333.201 235.3 335.601 236.6L410.401 279.5C415.701 282.5 415.101 287.9 408.901 291.5L337.401 333.1C334.001 335.1 329.701 336.1 325.601 336.1C322.301 336.1 319.101 335.4 316.701 334.1L241.901 291.2C236.601 288.2 237.201 282.8 243.401 279.2L314.901 237.6C318.301 235.6 322.601 234.6 326.701 234.6ZM326.701 233.5C322.301 233.5 317.801 234.6 314.401 236.6L242.901 278.2C239.301 280.3 237.301 283.1 237.301 285.9C237.301 288.3 238.801 290.5 241.501 292L316.301 334.9C318.801 336.3 322.101 337.1 325.801 337.1C330.201 337.1 334.701 336 338.101 334L409.601 292.4C413.201 290.3 415.201 287.5 415.201 284.7C415.201 282.3 413.701 280.1 411.001 278.6L336.201 235.7C333.701 234.3 330.401 233.5 326.701 233.5Z" fill="black"/>
<path d="M325.801 316.1C323.601 316.1 321.701 315.6 320.201 314.8L275.701 289.3C274.101 288.4 273.301 287.1 273.301 285.7C273.301 284 274.501 282.4 276.601 281.2L319.101 256.5C321.101 255.3 323.801 254.7 326.401 254.7C328.601 254.7 330.501 255.2 332.001 256L376.501 281.5C378.101 282.4 378.901 283.7 378.901 285.1C378.901 286.8 377.701 288.4 375.601 289.6L333.101 314.3C331.101 315.4 328.501 316.1 325.801 316.1Z" fill="#B2BAC1"/>
<path d="M326.501 255.2C328.501 255.2 330.401 255.6 331.801 256.4L376.301 281.9C379.501 283.7 379.101 286.9 375.401 289L332.901 313.7C330.901 314.9 328.301 315.5 325.901 315.5C323.901 315.5 322.001 315.1 320.601 314.3L276.101 288.8C272.901 287 273.301 283.8 277.001 281.7L319.501 257C321.501 255.8 324.101 255.2 326.501 255.2ZM326.501 254.1C323.801 254.1 321.001 254.8 318.901 256L276.401 280.7C274.101 282 272.801 283.8 272.801 285.7C272.801 287.3 273.801 288.7 275.501 289.7L320.001 315.2C321.501 316.1 323.601 316.6 325.901 316.6C328.601 316.6 331.401 315.9 333.501 314.7L376.001 290C378.301 288.7 379.601 286.9 379.601 285C379.601 283.4 378.601 282 376.901 281L332.301 255.4C330.801 254.6 328.701 254.1 326.501 254.1Z" fill="black"/>
<path d="M325.8 316.1C323.6 316.1 321.7 315.6 320.2 314.8L275.7 289.3C275.4 289.1 275.2 289 275 288.8L274.5 288.4L274.9 288C275.4 287.5 276 287 276.8 286.6L319.3 261.9C321.3 260.7 324 260.1 326.6 260.1C328.8 260.1 330.7 260.6 332.2 261.4L376.7 286.9C377 287.1 377.2 287.2 377.4 287.4L377.9 287.8L377.5 288.2C377 288.7 376.4 289.2 375.6 289.6L333.1 314.3C331.1 315.4 328.5 316.1 325.8 316.1Z" fill="#393939"/>
<path d="M326.701 260.5C328.701 260.5 330.601 260.9 332.001 261.7L376.501 287.2C376.801 287.3 377.001 287.5 377.201 287.7C376.701 288.2 376.201 288.6 375.501 289L333.001 313.7C331.001 314.9 328.401 315.5 326.001 315.5C324.001 315.5 322.101 315.1 320.701 314.3L276.201 288.8C275.901 288.7 275.701 288.5 275.501 288.3C276.001 287.8 276.501 287.4 277.201 287L319.701 262.3C321.701 261.1 324.301 260.5 326.701 260.5ZM326.701 259.4C324.001 259.4 321.201 260.1 319.101 261.3L276.601 286C275.801 286.4 275.201 287 274.601 287.5L273.701 288.4L274.701 289.2C275.001 289.4 275.201 289.6 275.501 289.7L320.001 315.2C321.501 316.1 323.601 316.6 325.901 316.6C328.601 316.6 331.401 315.9 333.501 314.7L376.001 290C376.801 289.5 377.401 289 378.001 288.5L378.901 287.6L377.901 286.8C377.601 286.6 377.401 286.4 377.101 286.3L332.601 260.8C331.001 259.9 328.901 259.4 326.701 259.4Z" fill="black"/>
<path d="M446.2 255.6C443.4 255.6 440.9 255 439 253.9L382.7 221.4C380.7 220.2 379.6 218.6 379.6 216.8C379.6 214.7 381.1 212.6 383.8 211L437.9 179.8C440.4 178.3 443.8 177.5 447.1 177.5C449.9 177.5 452.4 178.1 454.3 179.2L510.6 211.7C512.6 212.9 513.7 214.5 513.7 216.3C513.7 218.4 512.2 220.6 509.5 222.1L455.4 253.3C452.9 254.8 449.5 255.6 446.2 255.6Z" fill="black"/>
<path d="M447.1 178C449.7 178 452.2 178.5 454 179.6L510.3 212.1C512.1 213.2 513.1 214.6 513.1 216.2C513.1 218.1 511.7 220.1 509.1 221.5L455 252.7C452.4 254.2 449.2 254.9 446 254.9C443.4 254.9 440.9 254.4 439.1 253.3L382.8 220.8C381 219.7 380 218.3 380 216.7C380 214.8 381.4 212.8 384 211.4L438.1 180.2C440.7 178.8 444 178 447.1 178ZM447.1 176.9C443.7 176.9 440.2 177.8 437.6 179.3L383.5 210.5C380.6 212.2 379 214.4 379 216.8C379 218.8 380.2 220.6 382.4 221.9L438.7 254.4C440.6 255.5 443.3 256.1 446.2 256.1C449.6 256.1 453.1 255.2 455.7 253.7L509.8 222.5C512.7 220.8 514.3 218.6 514.3 216.2C514.3 214.2 513.1 212.4 510.9 211.1L454.6 178.6C452.7 177.6 450 176.9 447.1 176.9Z" fill="black"/>
<path d="M446.801 185.8L443.201 183.7L446.801 181.7L450.301 183.7L446.801 185.8Z" fill="#2AA7FF"/>
<path d="M453.901 189.9L450.301 187.8L453.901 185.8L457.401 187.8L453.901 189.9Z" fill="#0D4A70"/>
<path d="M461 194L457.4 191.9L461 189.9L464.5 191.9L461 194Z" fill="white"/>
<path d="M468.1 198.1L464.5 196L468.1 194L471.6 196L468.1 198.1Z" fill="#2AA7FF"/>
<path d="M475.1 202.2L471.6 200.1L475.1 198.1L478.7 200.1L475.1 202.2Z" fill="white"/>
<path d="M482.201 206.3L478.701 204.2L482.201 202.2L485.801 204.2L482.201 206.3Z" fill="#B0E1FF"/>
<path d="M489.301 210.3L485.801 208.3L489.301 206.3L492.901 208.3L489.301 210.3Z" fill="#B0E1FF"/>
<path d="M496.4 214.4L492.9 212.4L496.4 210.3L500 212.4L496.4 214.4Z" fill="#2AA7FF"/>
<path d="M503.5 218.5L500 216.5L503.5 214.4L507 216.5L503.5 218.5Z" fill="#0D4A70"/>
<path d="M439.7 189.9L436.1 187.9L439.7 185.8L443.2 187.9L439.7 189.9Z" fill="#B0E1FF"/>
<path d="M446.801 194L443.201 191.9L446.801 189.9L450.301 191.9L446.801 194Z" fill="#B0E1FF"/>
<path d="M453.901 198.1L450.301 196L453.901 194L457.401 196L453.901 198.1Z" fill="#B0E1FF"/>
<path d="M460.9 202.2L457.4 200.1L460.9 198.1L464.5 200.1L460.9 202.2Z" fill="#B0E1FF"/>
<path d="M468 206.3L464.5 204.2L468 202.2L471.6 204.2L468 206.3Z" fill="#B0E1FF"/>
<path d="M475.1 210.4L471.6 208.3L475.1 206.3L478.7 208.3L475.1 210.4Z" fill="#B0E1FF"/>
<path d="M482.201 214.5L478.701 212.4L482.201 210.4L485.701 212.4L482.201 214.5Z" fill="#B0E1FF"/>
<path d="M489.301 218.5L485.701 216.5L489.301 214.5L492.801 216.5L489.301 218.5Z" fill="#B0E1FF"/>
<path d="M496.401 222.6L492.801 220.6L496.401 218.5L499.901 220.6L496.401 222.6Z" fill="#B0E1FF"/>
<path d="M432.401 194L428.801 192L432.401 189.9L435.901 192L432.401 194Z" fill="#B0E1FF"/>
<path d="M439.5 198.1L435.9 196.1L439.5 194L443 196.1L439.5 198.1Z" fill="#B0E1FF"/>
<path d="M446.701 202.2L443.201 200.1L446.701 198.1L450.301 200.1L446.701 202.2Z" fill="#2AA7FF"/>
<path d="M453.801 206.3L450.301 204.2L453.801 202.2L457.401 204.2L453.801 206.3Z" fill="#0D4A70"/>
<path d="M460.9 210.5L457.4 208.4L460.9 206.4L464.5 208.4L460.9 210.5Z" fill="white"/>
<path d="M468 214.5L464.5 212.4L468 210.4L471.5 212.4L468 214.5Z" fill="white"/>
<path d="M475.1 218.6L471.5 216.5L475.1 214.5L478.6 216.5L475.1 218.6Z" fill="#B0E1FF"/>
<path d="M482.2 222.7L478.6 220.6L482.2 218.6L485.7 220.6L482.2 222.7Z" fill="#B0E1FF"/>
<path d="M489.301 226.7L485.701 224.7L489.301 222.7L492.801 224.7L489.301 226.7Z" fill="#B0E1FF"/>
<path d="M425.4 198.1L421.9 196.1L425.4 194L429 196.1L425.4 198.1Z" fill="#2AA7FF"/>
<path d="M432.5 202.2L429 200.2L432.5 198.1L436.1 200.2L432.5 202.2Z" fill="#2AA7FF"/>
<path d="M439.6 206.3L436.1 204.3L439.6 202.2L443.2 204.3L439.6 206.3Z" fill="#0D4A70"/>
<path d="M446.701 210.4L443.201 208.4L446.701 206.3L450.301 208.4L446.701 210.4Z" fill="#B0E1FF"/>
<path d="M453.801 214.5L450.301 212.4L453.801 210.4L457.301 212.4L453.801 214.5Z" fill="#B0E1FF"/>
<path d="M460.901 218.6L457.301 216.5L460.901 214.5L464.401 216.5L460.901 218.6Z" fill="#B0E1FF"/>
<path d="M468 222.8L464.4 220.7L468 218.7L471.5 220.7L468 222.8Z" fill="white"/>
<path d="M475.1 226.8L471.5 224.7L475.1 222.7L478.6 224.7L475.1 226.8Z" fill="#2AA7FF"/>
<path d="M482.1 230.9L478.6 228.8L482.1 226.8L485.7 228.8L482.1 230.9Z" fill="#0D4A70"/>
<path d="M418.1 202.2L414.6 200.2L418.1 198.1L421.7 200.2L418.1 202.2Z" fill="#B0E1FF"/>
<path d="M425.4 206.3L421.9 204.3L425.4 202.2L429 204.3L425.4 206.3Z" fill="#B0E1FF"/>
<path d="M432.5 210.4L429 208.4L432.5 206.3L436 208.4L432.5 210.4Z" fill="#B0E1FF"/>
<path d="M439.4 214.5L435.9 212.5L439.4 210.4L442.9 212.5L439.4 214.5Z" fill="#B0E1FF"/>
<path d="M446.7 218.6L443.1 216.6L446.7 214.5L450.2 216.6L446.7 218.6Z" fill="#2AA7FF"/>
<path d="M453.801 222.7L450.201 220.6L453.801 218.6L457.301 220.6L453.801 222.7Z" fill="#B0E1FF"/>
<path d="M460.901 226.8L457.301 224.7L460.901 222.7L464.401 224.7L460.901 226.8Z" fill="#B0E1FF"/>
<path d="M467.9 230.9L464.4 228.8L467.9 226.8L471.5 228.8L467.9 230.9Z" fill="#0D4A70"/>
<path d="M475 235L471.5 232.9L475 230.9L478.6 232.9L475 235Z" fill="#B0E1FF"/>
<path d="M411 206.3L407.5 204.3L411 202.2L414.6 204.3L411 206.3Z" fill="#B0E1FF"/>
<path d="M418.301 210.4L414.801 208.4L418.101 206.3L421.601 208.4L418.301 210.4Z" fill="#B0E1FF"/>
<path d="M425.401 214.5L421.801 212.5L425.401 210.5L428.901 212.6L425.401 214.5Z" fill="white"/>
<path d="M432.5 218.6L428.9 216.6L432.5 214.5L436 216.6L432.5 218.6Z" fill="#2AA7FF"/>
<path d="M439.6 222.7L436 220.7L439.6 218.6L443.1 220.7L439.6 222.7Z" fill="#0D4A70"/>
<path d="M446.6 226.8L443.1 224.8L446.6 222.7L450.2 224.8L446.6 226.8Z" fill="#B0E1FF"/>
<path d="M453.701 230.9L450.201 228.8L453.701 226.8L457.301 228.8L453.701 230.9Z" fill="#B0E1FF"/>
<path d="M460.801 235L457.301 232.9L460.801 230.9L464.401 232.9L460.801 235Z" fill="#0D4A70"/>
<path d="M467.9 239.1L464.4 237L467.9 235L471.5 237L467.9 239.1Z" fill="#2AA7FF"/>
<path d="M404.1 210.4L400.5 208.4L404.1 206.4L407.6 208.4L404.1 210.4Z" fill="#B0E1FF"/>
<path d="M411.2 214.5L407.6 212.5L411.2 210.4L414.7 212.5L411.2 214.5Z" fill="#B0E1FF"/>
<path d="M418.301 218.7L414.701 216.7L418.301 214.6L421.801 216.7L418.301 218.7Z" fill="white"/>
<path d="M425.401 222.7L421.801 220.7L425.401 218.6L428.901 220.7L425.401 222.7Z" fill="#B0E1FF"/>
<path d="M432.4 226.8L428.9 224.8L432.4 222.7L436 224.8L432.4 226.8Z" fill="#B0E1FF"/>
<path d="M439.5 230.9L436 228.9L439.5 226.8L443.1 228.9L439.5 230.9Z" fill="#0D4A70"/>
<path d="M446.6 235L443.1 233L446.6 230.9L450.2 233L446.6 235Z" fill="#2AA7FF"/>
<path d="M453.701 239.1L450.201 237L453.701 235L457.301 237L453.701 239.1Z" fill="#0D4A70"/>
<path d="M460.801 243.2L457.301 241.1L460.801 239.1L464.301 241.1L460.801 243.2Z" fill="#0D4A70"/>
<path d="M397 214.6L393.4 212.5L397 210.5L400.5 212.5L397 214.6Z" fill="#2AA7FF"/>
<path d="M404.1 218.6L400.5 216.6L404.1 214.6L407.6 216.6L404.1 218.6Z" fill="white"/>
<path d="M411.2 222.7L407.6 220.7L411.2 218.6L414.7 220.7L411.2 222.7Z" fill="#2AA7FF"/>
<path d="M418.201 226.8L414.701 224.8L418.201 222.7L421.801 224.8L418.201 226.8Z" fill="#B0E1FF"/>
<path d="M425.301 230.9L421.801 228.9L425.301 226.8L428.901 228.9L425.301 230.9Z" fill="#2AA7FF"/>
<path d="M432.4 235L428.9 233L432.4 230.9L436 233L432.4 235Z" fill="#2AA7FF"/>
<path d="M439.5 239.1L436 237.1L439.5 235L443 237.1L439.5 239.1Z" fill="#B0E1FF"/>
<path d="M446.6 243.2L443 241.2L446.6 239.1L450.1 241.2L446.6 243.2Z" fill="#2AA7FF"/>
<path d="M453.7 247.3L450.1 245.2L453.7 243.2L457.2 245.2L453.7 247.3Z" fill="#B0E1FF"/>
<path d="M389.901 218.7L386.301 216.6L389.901 214.6L393.401 216.6L389.901 218.7Z" fill="#B0E1FF"/>
<path d="M396.9 222.8L393.4 220.7L396.9 218.7L400.5 220.7L396.9 222.8Z" fill="#0D4A70"/>
<path d="M404 226.8L400.5 224.8L404 222.8L407.6 224.8L404 226.8Z" fill="#2AA7FF"/>
<path d="M411.1 230.9L407.6 228.9L411.1 226.8L414.7 228.9L411.1 230.9Z" fill="#2AA7FF"/>
<path d="M418.201 235L414.701 233L418.201 230.9L421.801 233L418.201 235Z" fill="#B0E1FF"/>
<path d="M425.301 239.1L421.801 237.1L425.301 235L428.801 237.1L425.301 239.1Z" fill="#B0E1FF"/>
<path d="M432.401 243.2L428.801 241.2L432.401 239.1L435.901 241.2L432.401 243.2Z" fill="white"/>
<path d="M439.5 247.3L435.9 245.3L439.5 243.2L443 245.3L439.5 247.3Z" fill="#B0E1FF"/>
<path d="M446.6 251.4L443 249.4L446.6 247.3L450.1 249.4L446.6 251.4Z" fill="#B0E1FF"/>
<path d="M6.5004 240.2C6.5004 241.8 5.20039 243 3.70039 243C2.10039 243 0.900391 241.7 0.900391 240.2C0.900391 238.6 2.20039 237.4 3.70039 237.4C5.20039 237.4 6.5004 238.7 6.5004 240.2Z" fill="#B2BAC1"/>
<path d="M638 162.8L622.6 171.7L607.2 162.8V145.1L622.6 136.2L638 145.1V162.8ZM650 153.1L645.5 150.7C645.3 149.3 645 147.9 644.5 146.6L647.8 143C646.6 140.2 645 137.7 643 135.5L637.9 136.6C637.1 135.9 636.3 135.3 635.5 134.7L635.7 129.6C633 128.1 630.1 127.1 627 126.6L623.8 130.7H621.2L618 126.6C614.9 127.1 612 128.1 609.3 129.6L609.5 134.7C608.7 135.3 607.9 135.9 607.1 136.6L602 135.5C600 137.7 598.4 140.2 597.2 143L600.5 146.6C600.1 147.9 599.7 149.3 599.5 150.7L595 153.1V153.8C595 156.4 595.4 159 596.1 161.4L600.7 162C601.4 163.8 602.2 165.4 603.3 167L601.5 171.5C603.2 173.5 605.1 175.3 607.3 176.7L611.2 174.3C613.1 175.3 615.1 176.1 617.2 176.6L618.6 181C619.8 181.2 621.1 181.3 622.4 181.3C623.7 181.3 625 181.2 626.2 181L627.6 176.6C629.7 176.1 631.8 175.3 633.6 174.3L637.5 176.7C639.7 175.2 641.7 173.5 643.3 171.5L641.5 167C642.5 165.5 643.4 163.8 644.1 162L648.7 161.4C649.4 159 649.8 156.4 649.8 153.8C650 153.6 650 153.3 650 153.1Z" fill="#2AA7FF"/>
<path d="M59.4 358.1L56.5 356.6C56.4 355.7 56.2 354.8 55.9 354L58 351.7C57.2 349.9 56.2 348.3 54.9 346.9L51.6 347.6C51.1 347.2 50.6 346.8 50.1 346.4L50.2 343.1C48.5 342.2 46.6 341.5 44.6 341.2L42.5 343.8H40.9L38.8 341.2C36.8 341.5 34.9 342.2 33.2 343.1L33.3 346.4C32.8 346.8 32.2 347.2 31.8 347.6L28.5 346.9C27.2 348.3 26.2 349.9 25.4 351.7L27.5 354C27.2 354.8 27 355.7 26.9 356.6L24 358.1V358.5C24 360.2 24.2 361.8 24.7 363.4L27.7 363.8C28.1 364.9 28.7 366 29.3 367L28.1 369.9C29.2 371.2 30.4 372.3 31.9 373.2L34.4 371.6C35.6 372.3 36.9 372.8 38.3 373.1L39.2 375.9C40 376 40.8 376.1 41.6 376.1C42.4 376.1 43.2 376 44 375.9L44.9 373.1C46.3 372.8 47.6 372.3 48.8 371.6L51.3 373.2C52.7 372.3 54 371.1 55.1 369.9L53.9 367C54.6 366 55.1 364.9 55.5 363.8L58.5 363.4C58.9 361.8 59.2 360.2 59.2 358.5C59.4 358.4 59.4 358.3 59.4 358.1Z" fill="#B2BAC1"/>
<path d="M410.4 279.8L335.8 236.7C333.1 235.1 329.2 234.5 325.4 234.7C328.2 234.9 330.9 235.5 332.9 236.7L407.5 279.8C412.8 282.9 412.1 288.2 406 291.8L334.3 333.2C331.3 334.9 327.7 335.9 324 336.1C328.5 336.4 333.4 335.4 337.2 333.2L408.9 291.8C415 288.2 415.7 282.9 410.4 279.8Z" fill="#B0E1FF"/>
<path d="M325.701 323.5C323.101 323.5 320.701 323 318.801 321.9L263.201 289.8C261.401 288.7 260.301 287.2 260.301 285.6C260.301 283.6 261.701 281.7 264.301 280.2L317.701 249.4C322.401 246.7 329.501 246.4 333.501 248.8L389.101 280.9C390.901 282 392.001 283.5 392.001 285.1C392.001 287.1 390.601 289 388.001 290.5L334.601 321.3C332.101 322.7 328.801 323.5 325.701 323.5ZM326.601 248C323.601 248 320.501 248.7 318.101 250.1L264.701 280.9C262.401 282.2 261.101 283.9 261.101 285.6C261.101 287 262.001 288.2 263.601 289.1L319.201 321.2C323.001 323.4 329.801 323.1 334.201 320.6L387.601 289.8C389.901 288.5 391.201 286.8 391.201 285.1C391.201 283.7 390.301 282.5 388.701 281.6L333.101 249.5C331.401 248.5 329.001 248 326.601 248Z" fill="#B0E1FF"/>
<path d="M319.9 334L245.3 290.9C240 287.8 240.7 282.5 246.8 278.9L318.5 237.5C321.4 235.8 325 234.9 328.6 234.6C324 234.3 319 235.3 315.2 237.5L243.5 278.9C237.4 282.4 236.7 287.8 242 290.9L316.6 334C319.4 335.6 323.3 336.3 327.2 336C324.4 335.8 321.9 335.1 319.9 334Z" fill="black"/>
<path d="M530.9 211L456.3 167.9C453.6 166.3 449.7 165.7 445.9 165.9C448.7 166.1 451.4 166.7 453.4 167.9L528 211C533.3 214.1 532.6 219.4 526.5 223L454.8 264.4C451.8 266.1 448.2 267.1 444.5 267.3C449 267.6 453.9 266.6 457.7 264.4L529.4 223C535.6 219.4 536.2 214.1 530.9 211Z" fill="#B0E1FF"/>
<path d="M446.2 254.9C443.6 254.9 441.1 254.4 439.2 253.3L383.6 221.2C381.7 220.1 380.6 218.5 380.6 216.8C380.6 214.8 382.1 212.7 384.7 211.2L438.1 180.4C442.8 177.7 450 177.4 454.2 179.8L509.8 211.9C511.7 213 512.8 214.6 512.8 216.3C512.8 218.3 511.3 220.4 508.7 221.9L455.3 252.7C452.7 254.2 449.4 254.9 446.2 254.9ZM439.8 252.2C443.6 254.4 450.2 254.1 454.6 251.6L508 220.8C510.2 219.5 511.5 217.9 511.5 216.3C511.5 215 510.7 213.9 509.2 213L453.6 180.9C449.8 178.7 443.2 179 438.8 181.5L385.4 212.3C383.2 213.6 381.9 215.2 381.9 216.8C381.9 218.1 382.7 219.2 384.2 220.1L439.8 252.2Z" fill="#4DC7FF"/>
<path d="M440.4 265.2L365.8 222.1C360.5 219 361.2 213.7 367.3 210.1L439 168.7C441.9 167 445.5 166.1 449.1 165.8C444.5 165.5 439.5 166.5 435.7 168.7L364 210.1C357.9 213.6 357.2 219 362.5 222.1L437.1 265.2C439.9 266.8 443.8 267.5 447.7 267.2C445 267 442.4 266.3 440.4 265.2Z" fill="white"/>
</g>
<defs>
<clipPath id="clip0_220_6802">
<rect width="649.1" height="495.1" fill="white" transform="translate(0.900391)"/>
</clipPath>
</defs>
</svg>
